<?xml version="1.0" encoding="utf-8"?>
<!-- Generator: Adobe Illustrator 25.0.0, SVG Export Plug-In . SVG Version: 6.00 Build 0)  -->
<svg version="1.1" id="Layer_1" xmlns="http://www.w3.org/2000/svg" xmlns:xlink="http://www.w3.org/1999/xlink" x="0px" y="0px"
	 viewBox="0 0 80 80" style="enable-background:new 0 0 80 80;" xml:space="preserve">
<style type="text/css">
	.st0{fill:#252F3E;}
	.st1{fill-rule:evenodd;clip-rule:evenodd;fill:#FF9900;}
</style>
<g>
	<path class="st0" d="M25.4,34.6c0,0.9,0.1,1.5,0.2,2c0.2,0.4,0.4,1,0.8,1.6c0.1,0.2,0.1,0.3,0.1,0.5s-0.1,0.4-0.4,0.7l-1.4,0.9
		c-0.2,0.1-0.4,0.2-0.5,0.2c-0.2,0-0.4-0.1-0.7-0.3c-0.3-0.3-0.5-0.7-0.8-1.1c-0.2-0.3-0.4-0.8-0.7-1.3c-1.8,2.1-3.9,3.1-6.6,3.1
		c-1.9,0-3.4-0.5-4.5-1.6s-1.6-2.5-1.6-4.2c0-1.9,0.7-3.4,2-4.6s3.2-1.8,5.5-1.8c0.8,0,1.5,0.1,2.4,0.2c0.9,0.1,1.6,0.3,2.5,0.4
		v-1.6c0-1.6-0.3-2.8-1.1-3.6c-0.8-0.7-1.9-1-3.6-1c-0.8,0-1.5,0.1-2.4,0.3c-0.9,0.2-1.6,0.4-2.4,0.8c-0.3,0.1-0.7,0.2-0.8,0.3
		c-0.1,0.1-0.2,0.1-0.3,0.1c-0.3,0-0.4-0.2-0.4-0.7v-1.1c0-0.3,0-0.7,0.1-0.8c0.1-0.1,0.3-0.3,0.7-0.4c0.8-0.4,1.8-0.8,2.8-1
		c1.1-0.3,2.3-0.4,3.5-0.4c2.6,0,4.6,0.5,5.8,1.8s1.9,3.1,1.9,5.5L25.4,34.6L25.4,34.6z M16.3,38c0.8,0,1.5-0.1,2.3-0.4
		c0.8-0.2,1.5-0.8,2.1-1.4c0.3-0.4,0.7-0.9,0.8-1.4s0.2-1.2,0.2-2v-1c-0.7-0.1-1.3-0.3-2.1-0.3c-0.8,0-1.3-0.1-2-0.1
		c-1.5,0-2.6,0.3-3.3,0.9c-0.8,0.5-1.1,1.4-1.1,2.5s0.2,1.9,0.9,2.4C14.6,37.7,15.3,38,16.3,38z M34.2,40.4c-0.4,0-0.7-0.1-0.9-0.2
		c-0.2-0.1-0.3-0.4-0.4-0.9l-5.3-17.2c-0.1-0.4-0.2-0.8-0.2-0.9c0-0.3,0.2-0.5,0.5-0.5h2.2c0.4,0,0.8,0.1,0.9,0.2
		c0.2,0.1,0.3,0.4,0.4,0.9l3.7,14.7l3.5-14.7c0.1-0.4,0.2-0.8,0.4-0.9c0.2-0.1,0.4-0.2,0.9-0.2h1.8c0.4,0,0.8,0.1,0.9,0.2
		c0.2,0.1,0.3,0.4,0.4,0.9l3.5,14.9l3.8-14.9c0.1-0.4,0.3-0.8,0.4-0.9c0.2-0.1,0.4-0.2,0.9-0.2h2.1c0.3,0,0.5,0.2,0.5,0.5
		c0,0.1,0,0.2,0,0.3c0,0.1-0.1,0.3-0.1,0.5l-5.4,17.2c-0.1,0.4-0.3,0.8-0.4,0.9c-0.1,0.1-0.4,0.2-0.9,0.2h-1.9
		c-0.4,0-0.8-0.1-0.9-0.2s-0.4-0.4-0.4-0.9L41,25l-3.4,14.3c-0.1,0.4-0.2,0.8-0.4,0.9c-0.2,0.1-0.4,0.2-0.9,0.2
		C36.3,40.4,34.2,40.4,34.2,40.4z M62.7,41c-1.2,0-2.3-0.1-3.4-0.4s-2-0.5-2.5-0.9c-0.3-0.2-0.5-0.4-0.7-0.7
		C56,38.8,56,38.6,56,38.3v-1.1c0-0.4,0.2-0.7,0.5-0.7c0.1,0,0.2,0,0.4,0.1c0.1,0,0.3,0.1,0.5,0.2c0.8,0.3,1.5,0.5,2.4,0.8
		c0.9,0.2,1.8,0.2,2.6,0.2c1.4,0,2.5-0.2,3.3-0.8c0.8-0.4,1.2-1.2,1.2-2.1c0-0.7-0.2-1.1-0.5-1.5c-0.7-0.3-1.4-0.8-2.5-1.1l-3.2-1
		c-1.6-0.5-2.8-1.3-3.6-2.3S56,26.9,56,25.8c0-1,0.2-1.8,0.5-2.5c0.3-0.8,1-1.3,1.6-1.9c0.6-0.6,1.4-0.9,2.3-1.2
		c0.9-0.3,1.9-0.3,2.8-0.3c0.4,0,1,0,1.5,0.1c0.5,0.1,1,0.1,1.4,0.2c0.4,0.1,0.9,0.2,1.3,0.3c0.4,0.1,0.8,0.2,1,0.4
		c0.3,0.2,0.5,0.3,0.7,0.5c0.1,0.2,0.2,0.4,0.2,0.8v1.1c0,0.4-0.2,0.8-0.5,0.8c-0.2,0-0.4-0.1-0.9-0.2c-1.3-0.5-2.7-0.9-4.3-0.9
		c-1.3,0-2.3,0.2-3,0.7c-0.7,0.4-1.1,1.1-1.1,2c0,0.7,0.2,1.2,0.7,1.5c0.4,0.4,1.3,0.9,2.4,1.2l3.2,1c1.6,0.5,2.7,1.2,3.4,2.2
		c0.7,0.9,1,2,1,3.1c0,1-0.2,1.9-0.5,2.6c-0.4,0.8-1,1.4-1.6,2c-0.7,0.5-1.5,1-2.5,1.2C64.9,40.9,63.9,41,62.7,41z"/>
	<g>
		<path class="st1" d="M67,51.8c-7.3,5.4-18,8.3-27,8.3c-12.8,0-24.3-4.7-33.1-12.6c-0.7-0.7-0.1-1.4,0.8-1c9.4,5.5,21,8.8,33.1,8.8
			c8.1,0,17.1-1.6,25.3-5.1C67.1,49.6,68.2,50.9,67,51.8z"/>
		<path class="st1" d="M70.1,48.3c-1-1.2-6.1-0.5-8.5-0.3c-0.8,0.1-0.9-0.5-0.2-1c4.2-3,11.1-2.1,11.8-1.1c0.8,1-0.2,7.9-4.2,11.2
			c-0.5,0.5-1.2,0.2-0.9-0.4C69,54.4,71,49.5,70.1,48.3z"/>
	</g>
</g>
</svg>
