<?xml version="1.0" encoding="utf-8"?>
<!-- Generator: Adobe Illustrator 25.0.0, SVG Export Plug-In . SVG Version: 6.00 Build 0)  -->
<svg version="1.1" id="Layer_1" xmlns="http://www.w3.org/2000/svg" xmlns:xlink="http://www.w3.org/1999/xlink" x="0px" y="0px"
	 viewBox="0 0 80 80" style="enable-background:new 0 0 80 80;" xml:space="preserve">
<style type="text/css">
	.st0{fill:#FB503B;}
</style>
<g>
	<path class="st0" d="M61.9,49.9c-0.2,9.2-8.4,15.6-16.4,17.5c3.8-1.6,7.2-4.6,7.6-9c0.4-4.1-1.7-7.5-4.5-10.1
		c-2.7-2.4-5.9-4.1-8.9-6.2c-1.7-1.3-4.2-3.7-3.3-6.1c-1.2,1-2.1,2.5-2.5,4.1c-0.7,3.1,1.1,5.5,3,7.7c1.9,2.2,1.8,6-1.5,6.7
		c-1.4,0.3-2.9-0.2-3.7-1.5c-0.9-1.3-0.7-2.6-0.3-4.1c-3,2.2-5.5,5.6-5.5,9.7c0,3.7,3,7.3,6.1,8.7c-6-1.6-11.7-5.8-13.4-12.4
		c-1.7-6.7,0.6-13.4,4.5-18.7c1.9-2.7,4.2-5.1,6.5-7.3c2.2-2.1,4.6-4.1,6.5-6.4c2-2.4,4.6-6.7,2.6-9.9c3.5,2.7,6.3,7.3,5.8,12
		c-0.4,3.8-3.1,7.5-0.4,11.1c1.6,2.2,5,1.8,6.2-0.4l-0.1,0.1c0.2-0.3,0.4-0.7,0.5-1.2v0.2c0.1-0.3,0.1-0.6,0.1-0.9
		c0,0.2-0.1,0.5-0.1,0.7c0-0.3,0-0.7-0.2-1.2l0.3,0.2C57.1,36.5,62.1,42.3,61.9,49.9z"/>
</g>
</svg>
