<?xml version="1.0" encoding="utf-8"?>
<!-- Generator: Adobe Illustrator 25.0.0, SVG Export Plug-In . SVG Version: 6.00 Build 0)  -->
<svg version="1.1" id="Layer_1" xmlns="http://www.w3.org/2000/svg" xmlns:xlink="http://www.w3.org/1999/xlink" x="0px" y="0px"
	 viewBox="0 0 80 80" style="enable-background:new 0 0 80 80;" xml:space="preserve">
<style type="text/css">
	.st0{fill:#FFFFFF;stroke:#FFFFFF;stroke-width:2;stroke-miterlimit:10;}
	.st1{fill:#FB503B;}
</style>
<path class="st0" d="M53.6,58.4c-0.4,4.4-3.8,7.4-7.6,9c-7,1.7-13.5-0.1-13.5-0.1l-1.7-1l0,0c-1.8-1.3-3.4-3.3-4-5.5
	c-0.2-0.7-0.3-1.4-0.3-2.2c0-4.1,2.5-7.5,5.5-9.7c-0.4,1.5-0.6,2.8,0.3,4.1c0.8,1.3,2.3,1.8,3.7,1.5c3.3-0.7,3.4-4.5,1.5-6.7
	s-3.7-4.6-3-7.7c0.4-1.6,1.3-3.1,2.5-4.1c-0.9,2.4,1.6,4.8,3.3,6.1c3,2.1,6.2,3.8,8.9,6.2C51.9,50.9,54,54.3,53.6,58.4z"/>
<path class="st1" d="M62.4,49.9C62.2,59.1,54,65.5,46,67.4c3.8-1.6,7.2-4.6,7.6-9c0.4-4.1-1.7-7.5-4.5-10.1
	c-2.7-2.4-5.9-4.1-8.9-6.2c-1.7-1.3-4.2-3.7-3.3-6.1c-1.2,1-2.1,2.5-2.5,4.1c-0.7,3.1,1.1,5.5,3,7.7s1.8,6-1.5,6.7
	c-1.4,0.3-2.9-0.2-3.7-1.5c-0.9-1.3-0.7-2.6-0.3-4.1c-3,2.2-5.5,5.6-5.5,9.7c0,0.7,0.1,1.5,0.3,2.2c0.7,2.2,2.2,4.2,4,5.5l0,0
	c0.6,0.4,1.1,0.8,1.7,1c-6-1.6-11.7-5.8-13.4-12.4c-1.7-6.7,0.6-13.4,4.5-18.7c1.9-2.7,4.2-5.1,6.5-7.3c2.2-2.1,4.6-4.1,6.5-6.4
	c2-2.4,4.6-6.7,2.6-9.9c3.5,2.7,6.3,7.3,5.8,12c-0.4,3.8-3.1,7.5-0.4,11.1c1.6,2.2,5,1.8,6.2-0.4l-0.1,0.1c0.2-0.3,0.4-0.7,0.5-1.2
	v0.2c0.1-0.3,0.1-0.6,0.1-0.9c0,0.2-0.1,0.5-0.1,0.7c0-0.3,0-0.7-0.2-1.2l0.3,0.2C57.6,36.5,62.6,42.3,62.4,49.9z"/>
</svg>
