<?xml version="1.0" encoding="utf-8"?>
<!-- Generator: Adobe Illustrator 25.0.0, SVG Export Plug-In . SVG Version: 6.00 Build 0)  -->
<svg version="1.1" id="Layer_1" xmlns="http://www.w3.org/2000/svg" xmlns:xlink="http://www.w3.org/1999/xlink" x="0px" y="0px"
	 viewBox="0 0 80 80" style="enable-background:new 0 0 80 80;" xml:space="preserve">
<style type="text/css">
	.st0{fill:#FB503B;stroke:#FB503B;stroke-miterlimit:10;}
</style>
<g>
	<path class="st0" d="M71.1,38.6c-0.4-0.4-6.2-7.7-7.2-8.9c-1-1.2-1.5-1-2.2-0.9s-7.9,1.3-8.7,1.4s-1.3,0.4-0.8,1.2
		c0.4,0.7,5.2,7.4,6.3,9l-19,4.6L24.4,19.6c-0.6-0.9-0.7-1.2-2.1-1.1c-1.3,0.1-11.9,1-12.6,1c-0.7,0.1-1.6,0.4-0.8,2.2
		c0.7,1.8,12.7,27.5,13,28.2c0.3,0.7,1.2,1.9,3.2,1.5c2.1-0.5,9.3-2.4,13.2-3.4c2.1,3.7,6.3,11.4,7.1,12.5c1,1.5,1.8,1.2,3.4,0.7
		c1.3-0.4,19.6-6.9,20.4-7.3c0.8-0.4,1.3-0.6,0.7-1.4c-0.4-0.6-5.2-7.1-7.8-10.5c1.7-0.4,7.9-2.1,8.6-2.3
		C71.4,39.4,71.6,39.1,71.1,38.6L71.1,38.6z M36.6,45.7c-0.2,0.1-10.9,2.6-11.4,2.8c-0.6,0.1-0.6,0.1-0.6-0.1
		c-0.1-0.2-12.7-26.2-12.9-26.5c-0.1-0.3-0.1-0.6,0-0.6c0.1,0,10.1-0.9,10.4-0.9c0.4,0,0.3,0.1,0.4,0.3c0,0,14,24.1,14.2,24.5
		C36.9,45.5,36.8,45.6,36.6,45.7L36.6,45.7z M66.6,51.3c0.1,0.3,0.4,0.4-0.2,0.6c-0.5,0.2-18,6.1-18.4,6.3s-0.6,0.2-1-0.4
		c-0.4-0.7-6.1-10.5-6.1-10.5l18.6-4.9c0.4-0.1,0.6-0.2,0.9,0.2C60.6,43.2,66.4,51.1,66.6,51.3L66.6,51.3z M67.8,38.2
		c-0.4,0.1-7.2,1.8-7.2,1.8L55,32.4c-0.1-0.2-0.3-0.4,0.1-0.5c0.4-0.1,6.7-1.2,7-1.3c0.3-0.1,0.5-0.1,0.9,0.4
		c0.4,0.4,5.2,6.6,5.4,6.8C68.5,37.9,68.2,38.1,67.8,38.2L67.8,38.2z"/>
</g>
</svg>
