<?xml version="1.0" encoding="utf-8"?>
<!-- Generator: Adobe Illustrator 25.0.0, SVG Export Plug-In . SVG Version: 6.00 Build 0)  -->
<svg version="1.1" id="Layer_1" xmlns="http://www.w3.org/2000/svg" xmlns:xlink="http://www.w3.org/1999/xlink" x="0px" y="0px"
	 viewBox="0 0 80 80" style="enable-background:new 0 0 80 80;" xml:space="preserve">
<style type="text/css">
	.st0{fill:#6F8AE2;}
</style>
<g>
	<g>
		<path class="st0" d="M22.7,30.9h-9.3L8.5,55.8h4.8l1.4-6.5H19c1.4,0,2.8-0.2,4.1-0.5c1.4-0.2,2.5-1,3.7-2.3c1-0.8,1.8-1.9,2.3-3.1
			c0.6-1.1,0.8-2.4,1-3.7c0.3-2.6,0-4.8-1.3-6.4C27.6,31.6,25.5,30.9,22.7,30.9z M24.8,39.8c-0.5,2.9-1.5,4.6-3,5
			c-1.4,0.3-3.2,0.6-5.5,0.6c-0.2,0-0.2,0-0.5,0c-0.1,0-0.2,0-0.3,0l2.1-10.3h0.5c0.3,0,0.6,0,0.8,0c1.9,0,3.4,0.1,4.7,0.5
			C24.8,36,25.2,37.2,24.8,39.8z"/>
		<path class="st0" d="M48.5,32.3c-1.1-0.9-2.9-1.4-5.3-1.4H39l1.4-6.7h-4.9l-4.9,24.9h4.8l2.9-14.3H42c1.3,0,1.9,0.2,2.4,0.8
			c0.3,0.5,0.3,1.4,0.2,2.5L42.3,49h4.8l2.4-11.6C49.9,35,49.7,33.2,48.5,32.3z"/>
		<path class="st0" d="M70,33.2c-1.3-1.5-3.2-2.4-6-2.4h-9.3l-4.9,24.9h4.8l1.4-6.5h4.2c1.4,0,2.8-0.2,4.1-0.5
			c1.4-0.2,2.5-1,3.7-2.3c1-0.8,1.8-1.9,2.3-3.1c0.6-1.1,0.8-2.4,1-3.7C71.6,37,71.3,34.8,70,33.2z M66,39.8c-0.5,2.9-1.5,4.6-3,5
			c-1.4,0.3-3.2,0.6-5.5,0.6c-0.2,0-0.2,0-0.5,0c-0.1,0-0.2,0-0.3,0l2.1-10.3h0.5c0.3,0,0.6,0,0.8,0c1.9,0,3.4,0.1,4.7,0.5
			C66,36,66.3,37.2,66,39.8z"/>
	</g>
</g>
</svg>
