<?xml version="1.0" encoding="utf-8"?>
<!-- Generator: Adobe Illustrator 25.0.0, SVG Export Plug-In . SVG Version: 6.00 Build 0)  -->
<svg version="1.1" id="Layer_1" xmlns="http://www.w3.org/2000/svg" xmlns:xlink="http://www.w3.org/1999/xlink" x="0px" y="0px"
	 viewBox="0 0 80 80" style="enable-background:new 0 0 80 80;" xml:space="preserve">
<style type="text/css">
	.st0{display:none;}
	.st1{display:inline;fill:#059DC1;}
	.st2{display:none;fill:#059DC1;}
	.st3{fill:#059DC1;}
	.st4{fill:#FFFFFF;stroke:#FFFFFF;stroke-miterlimit:10;}
</style>
<g class="st0">
	<path class="st1" d="M30.3,60.5c-7.5-3.6-12.6-11.2-12.6-20c0-3.2,0.8-6.3,1.9-9.1L30.3,60.5z"/>
	<path class="st1" d="M47.4,61.5c-2.3,0.9-4.8,1.3-7.4,1.3c-2.1,0-4.3-0.4-6.3-1l6.7-19.4l6.9,18.8C47.3,61.3,47.3,61.4,47.4,61.5z"
		/>
	<path class="st1" d="M53.2,33.1c0.8,1.5,1.8,3.4,1.8,6.2c0,1.9-0.7,4.2-1.6,7.2L51.2,54l-8.1-24c1.4-0.1,2.6-0.2,2.6-0.2
		c1.3-0.1,1.1-1.9-0.1-1.8c0,0-3.7,0.3-6,0.3c-2.2,0-5.9-0.3-5.9-0.3c-1.2-0.1-1.3,1.7-0.1,1.8c0,0,1.1,0.1,2.3,0.2l3.4,9.3
		l-4.9,14.6l-8.1-24.1c1.4-0.1,2.6-0.2,2.6-0.2c1.3-0.1,1.1-1.9-0.1-1.8c0,0-3.7,0.3-6,0.3h-1.4c4-6.1,10.8-10,18.6-10
		c5.7,0,11.1,2.3,15,5.9h-0.3c-2.1,0-3.7,1.9-3.7,3.9C51,29.7,52,31.3,53.2,33.1z"/>
	<path class="st1" d="M62.2,40.4c0,8.2-4.5,15.5-11.1,19.3L57.9,40c1.3-3.2,1.7-5.8,1.7-8c0-0.7,0-1.5-0.1-2.2
		C61.3,32.9,62.3,36.7,62.2,40.4z"/>
</g>
<path class="st2" d="M40,15.7c-13.6,0-24.7,11.2-24.7,24.8S26.4,65.2,40,65.2s24.7-11.1,24.7-24.8C64.7,26.8,53.6,15.7,40,15.7z
	 M40,18.1c5.7,0,11.1,2.3,15,5.9h-0.3c-2.1,0-3.7,1.9-3.7,3.9c0,1.8,1,3.4,2.2,5.2c0.8,1.5,1.8,3.4,1.8,6.2c0,1.9-0.7,4.2-1.6,7.2
	L51.2,54l-8.1-24c1.4-0.1,2.6-0.2,2.6-0.2c1.3-0.1,1.1-1.9-0.1-1.8c0,0-3.7,0.3-6,0.3c-2.2,0-5.9-0.3-5.9-0.3
	c-1.2-0.1-1.3,1.7-0.1,1.8c0,0,1.1,0.1,2.3,0.2l3.4,9.3l-4.9,14.6l-8.1-24.1c1.4-0.1,2.6-0.2,2.6-0.2c1.3-0.1,1.1-1.9-0.1-1.8
	c0,0-3.7,0.3-6,0.3h-1.4C25.4,22,32.2,18.1,40,18.1z M17.7,40.5c0-3.2,0.8-6.3,1.9-9.1l10.7,29.1C22.8,56.9,17.7,49.3,17.7,40.5z
	 M40,62.8c-2.1,0-4.3-0.4-6.3-1l6.7-19.4l6.9,18.8c0,0.1,0,0.2,0.1,0.3C45.1,62.4,42.6,62.8,40,62.8z M51.1,59.7L57.9,40
	c1.3-3.2,1.7-5.8,1.7-8c0-0.7,0-1.5-0.1-2.2c1.8,3.1,2.8,6.9,2.7,10.6C62.2,48.6,57.7,55.9,51.1,59.7z"/>
<g>
	<path class="st3" d="M19.6,31.4l10.7,29.1c-7.5-3.6-12.6-11.2-12.6-20C17.7,37.3,18.5,34.2,19.6,31.4z"/>
	<path class="st3" d="M47.3,61.2c0,0.1,0,0.2,0.1,0.3c-2.3,0.9-4.8,1.3-7.4,1.3c-2.1,0-4.3-0.4-6.3-1l6.7-19.4L47.3,61.2z"/>
	<path class="st3" d="M22.8,28.1h-1.4c4-6.1,10.8-10,18.6-10c5.7,0,11.1,2.3,15,5.9h-0.3c-2.1,0-3.7,1.9-3.7,3.9
		c0,1.8,1,3.4,2.2,5.2c0.8,1.5,1.8,3.4,1.8,6.2c0,1.9-0.7,4.2-1.6,7.2L51.2,54l-8.1-24c1.4-0.1,2.6-0.2,2.6-0.2
		c1.3-0.1,1.1-1.9-0.1-1.8c0,0-3.7,0.3-6,0.3c-2.2,0-5.9-0.3-5.9-0.3c-1.2-0.1-1.3,1.7-0.1,1.8c0,0,1.1,0.1,2.3,0.2l3.4,9.3
		l-4.9,14.6l-8.1-24.1c1.4-0.1,2.6-0.2,2.6-0.2c1.3-0.1,1.1-1.9-0.1-1.8C28.8,27.8,25.1,28.1,22.8,28.1z"/>
	<path class="st3" d="M62.2,40.4c0,8.2-4.5,15.5-11.1,19.3L57.9,40c1.3-3.2,1.7-5.8,1.7-8c0-0.7,0-1.5-0.1-2.2
		C61.3,32.9,62.3,36.7,62.2,40.4z"/>
</g>
<path class="st4" d="M40,12.6c-15.4,0-27.9,12.5-27.9,27.9S24.6,68.4,40,68.4s27.9-12.5,27.9-27.9S55.4,12.6,40,12.6z M40,67
	c-14.6,0-26.5-11.9-26.5-26.5S25.4,13.9,40,13.9s26.5,11.9,26.5,26.5C66.5,55.1,54.6,67,40,67z"/>
</svg>
