<?xml version="1.0" encoding="utf-8"?>
<!-- Generator: Adobe Illustrator 25.0.0, SVG Export Plug-In . SVG Version: 6.00 Build 0)  -->
<svg version="1.1" id="Layer_1" xmlns="http://www.w3.org/2000/svg" xmlns:xlink="http://www.w3.org/1999/xlink" x="0px" y="0px"
	 viewBox="0 0 80 80" style="enable-background:new 0 0 80 80;" xml:space="preserve">
<style type="text/css">
	.st0{fill:#059DC1;}
	.st1{fill:#059DC1;stroke:#059DC1;stroke-miterlimit:10;}
</style>
<g>
	<path class="st0" d="M19.6,31l10.7,29.1c-7.5-3.6-12.6-11.2-12.6-20C17.7,36.9,18.5,33.8,19.6,31z"/>
	<path class="st0" d="M47.3,60.8c0,0.1,0,0.2,0.1,0.3c-2.3,0.9-4.8,1.3-7.4,1.3c-2.1,0-4.3-0.4-6.3-1L40.4,42L47.3,60.8z"/>
	<path class="st0" d="M22.8,27.6h-1.4c4-6.1,10.8-10,18.6-10c5.7,0,11.1,2.3,15,5.9h-0.3c-2.1,0-3.7,1.9-3.7,3.9
		c0,1.8,1,3.4,2.2,5.2C54,34.1,55,36,55,38.8c0,1.9-0.7,4.2-1.6,7.2l-2.2,7.5l-8.1-24c1.4-0.1,2.6-0.2,2.6-0.2
		c1.3-0.1,1.1-1.9-0.1-1.8c0,0-3.7,0.3-6,0.3c-2.2,0-5.9-0.3-5.9-0.3c-1.2-0.1-1.3,1.7-0.1,1.8c0,0,1.1,0.1,2.3,0.2l3.4,9.3
		l-4.9,14.6l-8.1-24.1c1.4-0.1,2.6-0.2,2.6-0.2c1.3-0.1,1.1-1.9-0.1-1.8C28.8,27.4,25.1,27.6,22.8,27.6z"/>
	<path class="st0" d="M62.2,40c0,8.2-4.5,15.5-11.1,19.3l6.8-19.7c1.3-3.2,1.7-5.8,1.7-8c0-0.7,0-1.5-0.1-2.2
		C61.3,32.5,62.3,36.3,62.2,40z"/>
</g>
<path class="st1" d="M40,12.1c-15.4,0-27.9,12.5-27.9,27.9S24.6,67.9,40,67.9S67.9,55.4,67.9,40S55.4,12.1,40,12.1z M40,66.5
	c-14.6,0-26.5-11.9-26.5-26.5S25.4,13.4,40,13.4s26.5,11.9,26.5,26.5C66.5,54.6,54.6,66.5,40,66.5z"/>
</svg>
