<?xml version="1.0" encoding="utf-8"?>
<!-- Generator: Adobe Illustrator 25.0.0, SVG Export Plug-In . SVG Version: 6.00 Build 0)  -->
<svg version="1.1" id="Layer_1" xmlns="http://www.w3.org/2000/svg" xmlns:xlink="http://www.w3.org/1999/xlink" x="0px" y="0px"
	 viewBox="0 0 100 100" style="enable-background:new 0 0 100 100;" xml:space="preserve">
<style type="text/css">
	.st0{fill:#FFFFFF;}
</style>
<g id="vlpf_13_">
	<path class="st0" d="M39.1,63.5H20l-3.9,12.1c-0.1,0.5-0.5,0.8-1,0.7H5.5c-0.6,0-0.7-0.3-0.6-0.9L21.5,28c0.2-0.5,0.3-1,0.5-1.6
		c0.2-1.1,0.3-2.2,0.3-3.3c-0.1-0.3,0.2-0.5,0.4-0.6h0.2H36c0.4,0,0.6,0.2,0.7,0.4l18.8,52.4c0.2,0.6,0,0.8-0.5,0.8H44.2
		c-0.4,0.1-0.7-0.2-0.8-0.6l-4.2-12.3L39.1,63.5z M23,53.3h13c-0.3-1.1-0.7-2.4-1.2-3.7c-0.5-1.4-0.9-2.9-1.4-4.4
		c-0.5-1.6-1-3.1-1.5-4.7s-1-3.1-1.4-4.6c-0.4-1.4-0.8-2.8-1.1-4h-0.1c-0.5,2.2-1,4.4-1.7,6.6c-0.8,2.5-1.5,5-2.4,7.6
		C24.6,48.7,23.8,51.1,23,53.3z"/>
	<path class="st0" d="M85.7,58.9H69.4c0.2,1.6,0.7,3.2,1.6,4.6c0.9,1.4,2.2,2.5,3.8,3.1c2.1,0.9,4.3,1.3,6.6,1.3
		c1.8-0.1,3.6-0.2,5.3-0.6c1.6-0.2,3.1-0.6,4.6-1.2c0.3-0.2,0.4-0.1,0.4,0.4v7.9c0,0.2-0.1,0.4-0.1,0.6c-0.1,0.2-0.2,0.3-0.4,0.4
		c-1.6,0.7-3.3,1.2-5.1,1.5c-2.4,0.5-4.8,0.7-7.3,0.6c-3.9,0-7.2-0.6-9.9-1.8c-2.5-1.1-4.7-2.8-6.5-4.9c-1.6-2-2.8-4.3-3.5-6.7
		c-0.7-2.4-1.1-4.9-1.1-7.5c0-2.8,0.4-5.5,1.3-8.2c0.8-2.6,2.1-4.9,3.9-7c1.7-2.1,3.8-3.7,6.2-4.9s5.3-1.6,8.6-1.6
		c2.7-0.1,5.4,0.5,8,1.6c2.1,0.9,4,2.3,5.4,4.1c1.3,1.7,2.4,3.7,3.1,5.9c0.7,2.1,1,4.2,1,6.3c0,1.2-0.1,2.3-0.1,3.3
		c-0.1,1-0.2,1.7-0.2,2.2c-0.1,0.4-0.4,0.7-0.7,0.7c-0.3,0-0.9,0.1-1.7,0.1c-0.8,0.1-1.8,0.2-3,0.2C88.3,59.1,87,58.9,85.7,58.9
		L85.7,58.9z M69.4,51.4h10.8c1.3,0,2.3,0,2.9-0.1c0.4-0.1,0.8-0.2,1.2-0.4v-0.5c0-0.7-0.1-1.3-0.3-1.9c-0.9-2.9-3.6-4.8-6.7-4.7
		c-2.8-0.2-5.5,1.3-6.8,3.9C69.9,48.9,69.6,50.1,69.4,51.4z"/>
</g>
</svg>
