<?xml version="1.0" encoding="utf-8"?>
<!-- Generator: Adobe Illustrator 25.0.0, SVG Export Plug-In . SVG Version: 6.00 Build 0)  -->
<svg version="1.1" id="Layer_1" xmlns="http://www.w3.org/2000/svg" xmlns:xlink="http://www.w3.org/1999/xlink" x="0px" y="0px"
	 viewBox="0 0 100 100" style="enable-background:new 0 0 100 100;" xml:space="preserve">
<style type="text/css">
	.st0{fill:#FFFFFF;}
</style>
<g id="vlpf_14_">
	<path class="st0" d="M50,65.5H31.7L28,77.1c-0.1,0.4-0.5,0.7-0.9,0.7h-9.3c-0.5,0-0.7-0.3-0.5-0.9l15.9-45.7c0.1-0.5,0.3-1,0.5-1.6
		c0.2-1,0.3-2.1,0.3-3.2c0-0.2,0.1-0.5,0.4-0.5h0.1H47c0.4,0,0.6,0.1,0.6,0.4l18,50.8c0.1,0.5,0,0.8-0.5,0.8H54.9
		c-0.3,0-0.7-0.2-0.8-0.5L50,65.5L50,65.5z M34.5,55.5H47c-0.3-1-0.7-2.3-1.1-3.6c-0.4-1.3-0.9-2.8-1.3-4.2c-0.5-1.5-0.9-3-1.4-4.5
		s-0.9-3-1.3-4.4c-0.4-1.4-0.7-2.7-1.1-3.8h-0.1c-0.4,2.1-1,4.2-1.7,6.4c-0.7,2.4-1.5,4.8-2.3,7.3C36,51.1,35.3,53.4,34.5,55.5z"/>
	<path class="st0" d="M76.7,34.4c-1.6,0-3.2-0.6-4.4-1.7c-1.1-1.2-1.7-2.9-1.7-4.5c0-1.7,0.6-3.3,1.8-4.4c1.2-1.1,2.8-1.7,4.4-1.7
		c1.9,0,3.4,0.6,4.5,1.7c1.1,1.2,1.7,2.8,1.6,4.4c0,1.7-0.5,3.3-1.7,4.5C80,33.8,78.3,34.5,76.7,34.4L76.7,34.4z M71.1,77.2v-38
		c0-0.5,0.2-0.7,0.6-0.7h9.8c0.4,0,0.6,0.2,0.6,0.7v38c0,0.5-0.2,0.8-0.6,0.8h-9.7C71.4,78,71.1,77.7,71.1,77.2z"/>
</g>
</svg>
