<?xml version="1.0" encoding="utf-8"?>
<!-- Generator: Adobe Illustrator 25.0.0, SVG Export Plug-In . SVG Version: 6.00 Build 0)  -->
<svg version="1.1" id="Layer_1" xmlns="http://www.w3.org/2000/svg" xmlns:xlink="http://www.w3.org/1999/xlink" x="0px" y="0px"
	 viewBox="0 0 100 100" style="enable-background:new 0 0 100 100;" xml:space="preserve">
<style type="text/css">
	.st0{opacity:0.5;fill:#FFFFFF;enable-background:new    ;}
	.st1{opacity:0.2;fill:#FFFFFF;enable-background:new    ;}
	.st2{display:none;fill:#FFFFFF;}
	.st3{display:none;}
	.st4{display:inline;fill:#FFFFFF;}
	.st5{fill:#FFFFFF;}
</style>
<path class="st0" d="M85.5,52.8c-0.4-3.3-1.5-6.4-3.1-9.3c-1.5-2.6-3.4-4.9-5.7-6.8L53.8,17.5c0,0,0,0-0.1-0.1c-1.5-1.3-4-1.3-5.7,0
	s-1.9,3.4-0.4,4.7l9.6,8.5H28.1c-1.2,0-2.4,0.4-3.3,1.1c-0.9,0.7-1.6,1.7-1.9,2.8c-0.5,2.2,1.2,4.1,3.7,4.1h14.8L15,60.8l-0.1,0.1
	c-2.5,2.1-3.3,5.5-1.7,7.7c1.6,2.2,5,2.2,7.5,0L35,55.8c0,0-0.2,1.7-0.2,2.7s0.3,3.1,0.8,4.7c1,3.4,2.6,6.5,4.9,9.2
	c2.3,2.8,5.2,5.1,8.5,6.7c3.5,1.7,7.3,2.5,11.2,2.5s7.7-0.9,11.2-2.6c3.3-1.6,6.2-3.9,8.5-6.7c2.3-2.8,3.9-5.9,4.9-9.2
	c0.5-1.7,0.8-3.4,0.9-5.2C85.8,56.2,85.8,54.5,85.5,52.8z M74.9,59c-0.7,1.9-1.7,3.7-3.2,5.4c-3,3.3-7.1,5.2-11.6,5.2
	s-8.6-1.8-11.6-5.1c-1.4-1.6-2.5-3.5-3.2-5.4c-0.6-1.9-0.9-4-0.7-6.1c0.2-2,0.7-4,1.6-5.7c0.9-1.7,2.1-3.3,3.5-4.6
	c2.9-2.6,6.5-4,10.4-4c3.8,0,7.5,1.4,10.4,3.9c1.5,1.3,2.7,2.9,3.5,4.6c0.9,1.7,1.4,3.7,1.6,5.7C75.8,55,75.5,57,74.9,59z"/>
<path class="st1" d="M70.4,53.1c0.1,2.7-0.9,5.3-2.6,7.2c-1.8,1.9-4.4,3.1-7.3,3.1s-5.5-1.2-7.3-3.1c-1.8-1.9-2.8-4.4-2.6-7.2
	c0.1-2.7,1.3-5,3.1-6.7c1.8-1.6,4.2-2.6,6.8-2.6s5,1,6.8,2.6C69.1,48.1,70.3,50.4,70.4,53.1z"/>
<path class="st2" d="M41.2,52.7c0.3-5.2,2.6-9.8,6.1-13.1c3.5-3.2,8.1-5.2,13.2-5.2s9.7,2,13.2,5.2c3.5,3.3,5.9,7.8,6.1,13.1
	c0.3,5.4-1.7,10.3-5.2,14c-3.5,3.8-8.5,6.1-14.1,6.1s-10.6-2.4-14.1-6.1S40.9,58,41.2,52.7L41.2,52.7z"/>
<g class="st3">
	<path class="st4" d="M75.6,52.9c-0.2-2-0.7-4-1.6-5.7c-0.8-1.7-2-3.3-3.5-4.6c-2.9-2.5-6.6-3.9-10.4-3.9c-3.9,0-7.5,1.4-10.4,4
		c-1.4,1.3-2.6,2.9-3.5,4.6C45.3,49,44.8,51,44.6,53c-0.2,2.1,0.1,4.2,0.7,6.1c0.7,1.9,1.8,3.8,3.2,5.4c3,3.3,7.1,5.1,11.6,5.1
		s8.6-1.9,11.6-5.2c1.5-1.7,2.5-3.5,3.2-5.4C75.5,57,75.8,55,75.6,52.9z M67.8,60.3c-1.8,1.9-4.4,3.1-7.3,3.1s-5.5-1.2-7.3-3.1
		c-1.8-1.9-2.8-4.4-2.6-7.2c0.1-2.7,1.3-5,3.1-6.7c1.8-1.6,4.2-2.6,6.8-2.6s5,1,6.8,2.6c1.8,1.7,3,4,3.1,6.7S69.5,58.4,67.8,60.3z"
		/>
</g>
<path class="st5" d="M75.6,52.9c-0.2-2-0.7-4-1.6-5.7c-0.8-1.7-2-3.3-3.5-4.6c-2.9-2.5-6.6-3.9-10.4-3.9c-3.9,0-7.5,1.4-10.4,4
	c-1.4,1.3-2.6,2.9-3.5,4.6C45.3,49,44.8,51,44.6,53c-0.2,2.1,0.1,4.2,0.7,6.1c0.7,1.9,1.8,3.8,3.2,5.4c3,3.3,7.1,5.1,11.6,5.1
	s8.6-1.9,11.6-5.2c1.5-1.7,2.5-3.5,3.2-5.4C75.5,57,75.8,55,75.6,52.9z M67.8,60.3c-1.8,1.9-4.4,3.1-7.3,3.1s-5.5-1.2-7.3-3.1
	c-1.8-1.9-2.8-4.4-2.6-7.2c0.1-2.7,1.3-5,3.1-6.7c1.8-1.6,4.2-2.6,6.8-2.6s5,1,6.8,2.6c1.8,1.7,3,4,3.1,6.7S69.5,58.4,67.8,60.3z"/>
<path class="st0" d="M60.5,63.4c-2.9,0-5.5-1.2-7.3-3.1c-1.8-1.9-2.8-4.4-2.6-7.2c0.1-2.7,1.3-5,3.1-6.7c1.8-1.6,4.2-2.6,6.8-2.6
	s5,1,6.8,2.6c1.8,1.7,3,4,3.1,6.7s-0.9,5.3-2.6,7.2C66,62.2,63.4,63.4,60.5,63.4z"/>
</svg>
