<?xml version="1.0" encoding="utf-8"?>
<!-- Generator: Adobe Illustrator 25.0.0, SVG Export Plug-In . SVG Version: 6.00 Build 0)  -->
<svg version="1.1" id="Layer_1" xmlns="http://www.w3.org/2000/svg" xmlns:xlink="http://www.w3.org/1999/xlink" x="0px" y="0px"
	 viewBox="0 0 100 100" style="enable-background:new 0 0 100 100;" xml:space="preserve">
<style type="text/css">
	.st0{fill:#FFFFFF;}
	.st1{fill:#265787;}
	.st2{fill:#EA7600;}
</style>
<g>
	<path class="st0" d="M41.2,52.7c0.3-5.2,2.6-9.8,6.1-13.1c3.5-3.2,8.1-5.2,13.2-5.2s9.7,2,13.2,5.2c3.5,3.3,5.9,7.8,6.1,13.1
		c0.3,5.4-1.7,10.3-5.2,14c-3.5,3.8-8.5,6.1-14.1,6.1s-10.6-2.4-14.1-6.1S40.9,58,41.2,52.7L41.2,52.7z"/>
	<path class="st1" d="M50.6,53.1c0.1-2.7,1.3-5,3.1-6.7c1.8-1.6,4.2-2.6,6.8-2.6s5,1,6.8,2.6c1.8,1.7,3,4,3.1,6.7s-0.9,5.3-2.6,7.2
		c-1.8,1.9-4.4,3.1-7.3,3.1s-5.5-1.2-7.3-3.1C51.4,58.4,50.4,55.9,50.6,53.1L50.6,53.1z"/>
	<path class="st2" d="M34.8,58.5c0,1,0.3,3.1,0.8,4.7c1,3.4,2.6,6.5,4.9,9.2c2.3,2.8,5.2,5.1,8.5,6.7c3.5,1.7,7.3,2.5,11.2,2.5
		s7.7-0.9,11.2-2.6c3.3-1.6,6.2-3.9,8.5-6.7c2.3-2.8,3.9-5.9,4.9-9.2c0.5-1.7,0.8-3.4,0.9-5.2c0.1-1.7,0.1-3.4-0.2-5.1
		c-0.4-3.3-1.5-6.4-3.1-9.3c-1.5-2.6-3.4-4.9-5.7-6.8l0,0L53.8,17.5c0,0,0,0-0.1-0.1c-1.5-1.3-4-1.3-5.7,0s-1.9,3.4-0.4,4.7l0,0
		l9.6,8.5H28.1l0,0c-2.4,0-4.7,1.7-5.2,3.9s1.2,4.1,3.7,4.1l0,0h14.8L15,60.8l-0.1,0.1c-2.5,2.1-3.3,5.5-1.7,7.7
		c1.6,2.2,5,2.2,7.5,0L35,55.8C35,55.8,34.8,57.5,34.8,58.5L34.8,58.5z M71.7,64.4c-3,3.3-7.1,5.2-11.6,5.2s-8.6-1.8-11.6-5.1
		c-1.4-1.6-2.5-3.5-3.2-5.4c-0.6-1.9-0.9-4-0.7-6.1c0.2-2,0.7-4,1.6-5.7c0.9-1.7,2.1-3.3,3.5-4.6c2.9-2.6,6.5-4,10.4-4
		c3.8,0,7.5,1.4,10.4,3.9c1.5,1.3,2.7,2.9,3.5,4.6c0.9,1.7,1.4,3.7,1.6,5.7c0.2,2.1-0.1,4.1-0.7,6.1C74.2,60.9,73.2,62.7,71.7,64.4
		L71.7,64.4z"/>
</g>
</svg>
