<?xml version="1.0" encoding="utf-8"?>
<!-- Generator: Adobe Illustrator 25.0.0, SVG Export Plug-In . SVG Version: 6.00 Build 0)  -->
<svg version="1.1" id="Layer_1" xmlns="http://www.w3.org/2000/svg" xmlns:xlink="http://www.w3.org/1999/xlink" x="0px" y="0px"
	 viewBox="0 0 100 100" style="enable-background:new 0 0 100 100;" xml:space="preserve">
<style type="text/css">
	.st0{fill:#9999FF;}
</style>
<g id="vlpe_6_">
	<g id="vlpf_12_">
		<path class="st0" d="M14.2,76.8V23.4c0-0.4,0.2-0.6,0.5-0.6c0.9,0,1.7,0,2.9-0.1c1.2-0.1,2.5-0.1,3.9-0.1s2.9-0.1,4.5-0.1
			c1.6-0.1,3.2-0.1,4.7-0.1c4.3,0,7.8,0.5,10.7,1.6c2.6,0.9,5,2.3,6.9,4.3c1.7,1.7,3,3.7,3.8,5.9c0.8,2.2,1.2,4.4,1.2,6.7
			c0,4.5-1,8.1-3.1,11c-2.1,2.9-5,5.1-8.3,6.3c-3.5,1.3-7.4,1.8-11.7,1.8c-1.2,0-2.1,0-2.6-0.1C27.1,60,26.4,60,25.4,60v16.6
			c0.1,0.4-0.2,0.7-0.6,0.7h-0.2h-9.8C14.4,77.4,14.2,77.2,14.2,76.8L14.2,76.8z M25.5,32.9v17.4c0.7,0.1,1.4,0.1,2,0.1h2.7
			c2,0,4-0.3,6-0.9c1.7-0.5,3.1-1.5,4.3-2.7c1.1-1.3,1.6-3.1,1.6-5.3c0.1-1.6-0.4-3.2-1.2-4.6c-0.9-1.3-2.1-2.4-3.6-3
			c-1.9-0.8-4-1.1-6.1-1c-1.3,0-2.5,0-3.5,0.1C26.6,32.8,25.8,32.8,25.5,32.9L25.5,32.9z"/>
		<path class="st0" d="M60.8,35.9h9.1c0.5,0,0.9,0.4,1.1,0.8c0.2,0.4,0.3,0.8,0.3,1.3c0.1,0.5,0.2,1.1,0.3,1.6
			c0.1,0.6,0.1,1.2,0.1,1.9c1.6-1.8,3.4-3.3,5.5-4.5c2.4-1.3,5.1-2,7.9-2c0.4-0.1,0.7,0.2,0.7,0.6v0.2v10.1c0,0.4-0.3,0.6-0.8,0.6
			c-1.9-0.1-3.8,0.1-5.6,0.5c-1.5,0.3-3,0.8-4.4,1.4c-1,0.5-1.9,1.1-2.6,1.9v26.4c0,0.5-0.2,0.7-0.7,0.7H61.5
			c-0.4,0.1-0.8-0.2-0.8-0.6v-0.2V47.9c0-1.2,0-2.5-0.1-3.9c-0.1-1.3-0.1-2.7-0.1-4c0-1.2-0.1-2.3-0.2-3.5c-0.1-0.3,0.1-0.5,0.4-0.6
			C60.7,35.9,60.8,35.9,60.8,35.9L60.8,35.9z"/>
	</g>
</g>
</svg>
