<?xml version="1.0" encoding="utf-8"?>
<!-- Generator: Adobe Illustrator 25.0.0, SVG Export Plug-In . SVG Version: 6.00 Build 0)  -->
<svg version="1.1" id="Layer_1" xmlns="http://www.w3.org/2000/svg" xmlns:xlink="http://www.w3.org/1999/xlink" x="0px" y="0px"
	 viewBox="0 0 100 100" style="enable-background:new 0 0 100 100;" xml:space="preserve">
<style type="text/css">
	.st0{fill:#FFFFFF;}
</style>
<g id="Outlined_Mnemonics_Logos_5_">
	<g id="Ps_4_">
		<path class="st0" d="M13.2,75.8V23.4c0-0.4,0.2-0.6,0.5-0.6c0.9,0,1.7,0,2.9-0.1s2.5-0.1,3.9-0.1c1.4-0.1,2.9-0.1,4.4-0.1
			c1.6-0.1,3.1-0.1,4.6-0.1c4.2,0,7.6,0.5,10.5,1.6c2.5,0.9,4.9,2.3,6.8,4.2c1.6,1.6,2.9,3.6,3.7,5.8c0.8,2.1,1.2,4.3,1.2,6.6
			c0,4.4-1,8-3.1,10.8c-2,2.9-4.9,5-8.2,6.2C37,59,33.2,59.5,29,59.5c-1.2,0-2,0-2.5-0.1s-1.2-0.1-2.2-0.1v16.3
			c0.1,0.4-0.2,0.7-0.6,0.7c-0.1,0-0.1,0-0.2,0h-9.7C13.4,76.4,13.2,76.2,13.2,75.8z M24.3,32.6v17.1c0.7,0.1,1.4,0.1,2,0.1H29
			c2,0,4-0.3,5.9-0.9c1.6-0.5,3.1-1.4,4.2-2.7c1.1-1.3,1.6-3,1.6-5.2c0.1-1.6-0.4-3.2-1.2-4.5c-0.9-1.3-2.1-2.3-3.6-2.9
			c-1.9-0.8-3.9-1.1-6-1c-1.3,0-2.5,0-3.5,0.1C25.4,32.5,24.7,32.6,24.3,32.6L24.3,32.6z"/>
		<path class="st0" d="M83.5,46.6c-1.5-0.8-3.2-1.4-4.9-1.7c-1.9-0.4-3.8-0.7-5.7-0.7c-1-0.1-2.1,0.1-3.1,0.4
			c-0.7,0.2-1.2,0.5-1.6,1C68,46,67.9,46.5,67.9,47s0.2,0.9,0.5,1.3c0.5,0.6,1.1,1,1.7,1.4c1.2,0.6,2.4,1.2,3.6,1.7
			c2.7,0.9,5.4,2.2,7.8,3.7c1.7,1.1,3.1,2.5,4,4.2c0.8,1.6,1.2,3.4,1.2,5.2c0.1,2.4-0.7,4.8-2,6.8c-1.4,2-3.4,3.6-5.7,4.5
			c-2.5,1.1-5.6,1.6-9.2,1.6c-2.3,0-4.6-0.2-6.9-0.7c-1.8-0.3-3.6-0.9-5.2-1.6c-0.4-0.2-0.6-0.6-0.6-1v-8.9c0-0.2,0.1-0.4,0.2-0.5
			c0.2-0.1,0.3-0.1,0.5,0.1c2,1.2,4.1,2,6.3,2.5c1.9,0.5,4,0.8,6,0.8c1.9,0,3.3-0.3,4.2-0.7c0.8-0.4,1.4-1.2,1.4-2.1
			c0-0.7-0.4-1.4-1.2-2c-0.8-0.7-2.5-1.4-5-2.4c-2.6-0.9-5-2.1-7.2-3.7c-1.6-1.1-2.9-2.6-3.9-4.3c-0.8-1.6-1.2-3.4-1.2-5.2
			c0-2.2,0.6-4.3,1.7-6.2c1.3-2,3.2-3.7,5.3-4.7c2.4-1.2,5.4-1.8,9-1.8c2.1,0,4.2,0.2,6.3,0.5c1.5,0.2,3,0.6,4.4,1.2
			c0.2,0.1,0.4,0.3,0.5,0.5s0.1,0.4,0.1,0.6v8.3c0,0.2-0.1,0.4-0.3,0.5C84,46.7,83.7,46.7,83.5,46.6z"/>
	</g>
</g>
</svg>
