<?xml version="1.0" encoding="utf-8"?>
<!-- Generator: Adobe Illustrator 25.0.0, SVG Export Plug-In . SVG Version: 6.00 Build 0)  -->
<svg version="1.1" id="Layer_1" xmlns="http://www.w3.org/2000/svg" xmlns:xlink="http://www.w3.org/1999/xlink" x="0px" y="0px"
	 viewBox="0 0 100 100" style="enable-background:new 0 0 100 100;" xml:space="preserve">
<style type="text/css">
	.st0{fill:#FF61F6;}
</style>
<g id="Xd_4_">
	<path class="st0" d="M52.9,27.4L38.7,50.9l15.2,25C54,76,54,76.2,54,76.4c0,0.2-0.2,0-0.5,0.1H42.6c-0.8,0-1.3,0-1.6-0.5
		c-1-2-2-3.9-3-5.9c-1-1.9-2.1-3.9-3.2-6c-1.1-2-2.3-4.1-3.4-6.2h-0.1c-1,2-2.1,4.1-3.2,6.1c-1.1,2-2.2,4.1-3.2,6.1
		c-1.1,2-2.2,4-3.3,6c-0.2,0.5-0.6,0.5-1.1,0.5H9.9c-0.2,0-0.3,0.1-0.3-0.1s0-0.4,0.1-0.5l14.8-24.2L10.1,27.3
		c-0.1-0.2-0.2-0.4-0.1-0.5c0.1-0.1,0.3-0.2,0.5-0.2h10.8c0.2,0,0.5,0,0.7,0.1s0.3,0.2,0.5,0.4c0.9,2,1.9,4.1,3,6.1s2.2,4,3.4,6
		c1.1,2,2.2,4,3.2,6h0.1c1-2.1,2-4.1,3.1-6.1c1-2,2.1-4,3.2-6s2.1-4,3.2-6c0-0.2,0.1-0.4,0.3-0.5s0.4-0.1,0.6-0.1h10
		c0.2,0,0.5,0.1,0.5,0.3C53.1,27.1,53,27.3,52.9,27.4L52.9,27.4z"/>
	<path class="st0" d="M74.9,77.5c-3.5,0-7-0.7-10.2-2.1c-3-1.4-5.5-3.7-7.2-6.5c-1.8-2.9-2.6-6.5-2.6-10.8c0-3.5,0.9-7,2.6-10
		c1.8-3.1,4.4-5.7,7.6-7.4c3.3-1.9,7.3-2.8,12-2.8c0.2,0,0.6,0,1,0s0.9,0,1.5,0.1V23c0-0.3,0.1-0.5,0.5-0.5h9.6
		c0.2,0,0.4,0.1,0.5,0.3v0.1v45.2c0,0.9,0,1.8,0.1,2.9c0.1,1,0.1,1.9,0.2,2.8c0,0.3-0.1,0.6-0.5,0.8c-2.5,1-5.1,1.8-7.7,2.3
		C79.8,77.3,77.4,77.5,74.9,77.5z M79.5,68V47.1c-0.4-0.1-0.9-0.2-1.3-0.2c-0.5,0-1-0.1-1.6-0.1c-1.9,0-3.7,0.4-5.4,1.2
		c-1.6,0.8-3,2-4,3.5s-1.6,3.6-1.6,6c0,1.7,0.2,3.3,0.8,4.9c0.5,1.3,1.2,2.4,2.1,3.4c0.9,0.9,2,1.5,3.2,1.9c1.3,0.4,2.6,0.6,3.9,0.6
		c0.7,0,1.4,0,2-0.1C78.5,68.3,79,68.2,79.5,68z"/>
</g>
</svg>
