<?xml version="1.0" encoding="utf-8"?>
<!-- Generator: Adobe Illustrator 25.0.0, SVG Export Plug-In . SVG Version: 6.00 Build 0)  -->
<svg version="1.1" id="Layer_1" xmlns="http://www.w3.org/2000/svg" xmlns:xlink="http://www.w3.org/1999/xlink" x="0px" y="0px"
	 viewBox="0 0 45 45" style="enable-background:new 0 0 45 45;" xml:space="preserve">
<style type="text/css">
	.st0{clip-path:url(#SVGID_2_);}
	.st1{fill:#FFFFFF;}
	.st2{clip-path:url(#SVGID_4_);fill:#FFFFFF;}
	.st3{opacity:0.5;clip-path:url(#SVGID_6_);fill:#FFFFFF;enable-background:new    ;}
	.st4{clip-path:url(#SVGID_8_);fill:url(#SVGID_9_);}
	.st5{clip-path:url(#SVGID_11_);}
	.st6{display:none;fill:url(#SVGID_12_);}
	.st7{display:none;fill:url(#SVGID_13_);}
</style>
<g>
	<g>
		<defs>
			<path id="SVGID_1_" d="M36.8,21.1l-9.6,9.6l9.6,9.6H25.9l-9.6-9.6l9.6-9.6C25.9,21.1,36.8,21.1,36.8,21.1z M25.9,4.7L8.2,22.5
				l5.5,5.5L36.8,4.7H25.9z"/>
		</defs>
		<clipPath id="SVGID_2_">
			<use xlink:href="#SVGID_1_"  style="overflow:visible;"/>
		</clipPath>
		<g class="st0">
			<path class="st1" d="M21.8,36.2l15-15H25.9l-9.6,9.6L21.8,36.2z"/>
		</g>
	</g>
</g>
<g>
	<g>
		<defs>
			<path id="SVGID_3_" d="M36.8,21.1l-9.6,9.6l9.6,9.6H25.9l-9.6-9.6l9.6-9.6C25.9,21.1,36.8,21.1,36.8,21.1z M25.9,4.7L8.2,22.5
				l5.5,5.5L36.8,4.7H25.9z"/>
		</defs>
		<clipPath id="SVGID_4_">
			<use xlink:href="#SVGID_3_"  style="overflow:visible;"/>
		</clipPath>
		<path class="st2" d="M8.2,22.5L25.9,4.7h10.9L13.6,28L8.2,22.5z"/>
	</g>
</g>
<g>
	<g>
		<defs>
			<path id="SVGID_5_" d="M36.8,21.1l-9.6,9.6l9.6,9.6H25.9l-9.6-9.6l9.6-9.6C25.9,21.1,36.8,21.1,36.8,21.1z M25.9,4.7L8.2,22.5
				l5.5,5.5L36.8,4.7H25.9z"/>
		</defs>
		<clipPath id="SVGID_6_">
			<use xlink:href="#SVGID_5_"  style="overflow:visible;"/>
		</clipPath>
		<path class="st3" d="M25.9,40.3h10.9l-9.6-9.6l-5.5,5.5L25.9,40.3z"/>
	</g>
</g>
<g>
	<g>
		<defs>
			<path id="SVGID_7_" d="M36.8,21.1l-9.6,9.6l9.6,9.6H25.9l-9.6-9.6l9.6-9.6C25.9,21.1,36.8,21.1,36.8,21.1z M25.9,4.7L8.2,22.5
				l5.5,5.5L36.8,4.7H25.9z"/>
		</defs>
		<clipPath id="SVGID_8_">
			<use xlink:href="#SVGID_7_"  style="overflow:visible;"/>
		</clipPath>
		
			<linearGradient id="SVGID_9_" gradientUnits="userSpaceOnUse" x1="-4838.4937" y1="97.1469" x2="-4832.7622" y2="91.4232" gradientTransform="matrix(5.849693e-05 0 0 5.849693e-05 -2687.0989 -1590.2441)">
			<stop  offset="0" style="stop-color:#1A237E;stop-opacity:0.4"/>
			<stop  offset="1" style="stop-color:#1A237E;stop-opacity:0"/>
		</linearGradient>
		<path class="st4" d="M27.3,30.7l-5.5,5.5l8.1-2.8L27.3,30.7z"/>
	</g>
</g>
<g>
	<g>
		<defs>
			<path id="SVGID_10_" d="M36.8,21.1l-9.6,9.6l9.6,9.6H25.9l-9.6-9.6l9.6-9.6C25.9,21.1,36.8,21.1,36.8,21.1z M25.9,4.7L8.2,22.5
				l5.5,5.5L36.8,4.7H25.9z"/>
		</defs>
		<clipPath id="SVGID_11_">
			<use xlink:href="#SVGID_10_"  style="overflow:visible;"/>
		</clipPath>
		<g class="st5">
			<path class="st1" d="M16.4,30.7l5.5-5.5l5.5,5.5l-5.5,5.5L16.4,30.7z"/>
		</g>
	</g>
</g>
<radialGradient id="SVGID_12_" cx="434.8865" cy="-258.3528" r="10.3849" gradientTransform="matrix(1 0 0 -1 0 46)" gradientUnits="userSpaceOnUse">
	<stop  offset="0" style="stop-color:#FFFFFF;stop-opacity:0.1"/>
	<stop  offset="1" style="stop-color:#FFFFFF;stop-opacity:0"/>
</radialGradient>
<polygon class="st6" points="36.8,21.1 27.3,30.7 36.8,40.3 25.9,40.3 16.4,30.7 25.9,21.1 "/>
<radialGradient id="SVGID_13_" cx="594.0457" cy="551.3753" r="13.9762" gradientTransform="matrix(1.462423e-05 0 0 -1.462423e-05 -2776.3579 -1640.3737)" gradientUnits="userSpaceOnUse">
	<stop  offset="0" style="stop-color:#FFFFFF;stop-opacity:0.1"/>
	<stop  offset="1" style="stop-color:#FFFFFF;stop-opacity:0"/>
</radialGradient>
<polygon class="st7" points="25.9,4.7 8.2,22.5 13.6,28 36.8,4.7 "/>
</svg>
