<?xml version="1.0" encoding="utf-8"?>
<!-- Generator: Adobe Illustrator 25.0.0, SVG Export Plug-In . SVG Version: 6.00 Build 0)  -->
<svg version="1.1" id="Layer_1" xmlns="http://www.w3.org/2000/svg" xmlns:xlink="http://www.w3.org/1999/xlink" x="0px" y="0px"
	 viewBox="0 0 45 45" style="enable-background:new 0 0 45 45;" xml:space="preserve">
<style type="text/css">
	.st0{fill:#FFFFFF;stroke:#FFFFFF;stroke-width:0.5;stroke-linejoin:round;stroke-miterlimit:10;}
	.st1{fill:#FFFFFF;stroke:#FFFFFF;stroke-width:0.75;stroke-linejoin:round;stroke-miterlimit:10;}
</style>
<g>
	<path class="st0" d="M17.1,34.8c0,0-1.6,1,1.1,1.2c3.2,0.4,5,0.3,8.6-0.3c0,0,1,0.6,2.3,1.1C21,40.3,10.7,36.6,17.1,34.8L17.1,34.8
		z M16.1,30.3c0,0-1.7,1.3,1,1.6c3.5,0.3,6.3,0.4,11.1-0.6c0,0,0.6,0.7,1.7,1C20,35.3,9.1,32.7,16.1,30.3L16.1,30.3z M35.1,38.2
		c0,0,1.2,1-1.3,1.7c-4.6,1.4-19.4,1.8-23.6,0c-1.5-0.6,1.3-1.5,2.2-1.7s1.4-0.2,1.4-0.2c-1.6-1.1-10.6,2.3-4.6,3.2
		C25.8,44,39.4,40.1,35.1,38.2L35.1,38.2z M17.9,25.6c0,0-7.5,1.8-2.7,2.4c2.1,0.3,6.1,0.2,9.9-0.1c3.1-0.3,6.2-0.8,6.2-0.8
		s-1.1,0.5-1.9,1c-7.7,2-22.4,1.1-18.2-1C14.9,25.4,17.9,25.6,17.9,25.6L17.9,25.6z M31.3,33.1c7.7-4,4.1-7.9,1.7-7.4
		c-0.6,0.1-0.9,0.3-0.9,0.3s0.2-0.4,0.7-0.6c4.9-1.7,8.8,5.2-1.6,7.9C31.2,33.3,31.3,33.3,31.3,33.1L31.3,33.1z M18.6,44.1
		c7.5,0.5,18.9-0.3,19.1-3.8c0,0-0.6,1.4-6.1,2.4c-6.4,1.2-14.2,1-18.9,0.3C12.7,42.9,13.7,43.8,18.6,44.1L18.6,44.1z"/>
	<path class="st1" d="M26.6,0.8c0,0,4.3,4.4-4.1,10.9c-6.7,5.3-1.5,8.4,0,11.8c-3.9-3.5-6.8-6.6-4.8-9.5C20.6,9.7,28.4,7.7,26.6,0.8
		L26.6,0.8z M24.4,20.6c2,2.3-0.6,4.4-0.6,4.4s5.1-2.6,2.8-5.9c-2.1-3.1-3.8-4.6,5.2-9.8C31.8,9.3,17.7,12.8,24.4,20.6L24.4,20.6z"
		/>
</g>
</svg>
