<?xml version="1.0" encoding="utf-8"?>
<!-- Generator: Adobe Illustrator 25.0.0, SVG Export Plug-In . SVG Version: 6.00 Build 0)  -->
<svg version="1.1" id="Layer_1" xmlns="http://www.w3.org/2000/svg" xmlns:xlink="http://www.w3.org/1999/xlink" x="0px" y="0px"
	 viewBox="0 0 45 45" style="enable-background:new 0 0 45 45;" xml:space="preserve">
<style type="text/css">
	.st0{fill:#FFFFFF;}
	.st1{fill:none;stroke:#FFFFFF;stroke-width:1.8051;stroke-miterlimit:10;}
</style>
<ellipse class="st0" cx="22.5" cy="22.5" rx="3.8" ry="3.8"/>
<path class="st1" d="M22.5,14.8c5.1,0,9.8,0.7,13.3,1.9c4.3,1.5,6.9,3.7,6.9,5.7c0,2.1-2.8,4.5-7.4,6c-3.5,1.1-8,1.8-12.8,1.8
	c-4.9,0-9.6-0.6-13.1-1.8c-4.4-1.5-7.1-3.9-7.1-6c0-2,2.5-4.2,6.7-5.7C12.6,15.5,17.4,14.8,22.5,14.8L22.5,14.8z"/>
<path class="st1" d="M15.8,18.7c2.5-4.4,5.5-8.1,8.3-10.6c3.4-3,6.7-4.1,8.4-3.1c1.8,1.1,2.5,4.6,1.5,9.4c-0.7,3.6-2.5,7.8-4.9,12
	c-2.5,4.3-5.3,8-8.1,10.5c-3.5,3.1-6.9,4.2-8.7,3.2c-1.7-1-2.4-4.3-1.6-8.7C11.5,27.6,13.3,23.1,15.8,18.7L15.8,18.7z"/>
<path class="st1" d="M15.8,26.4c-2.5-4.4-4.3-8.8-5-12.5C10,9.4,10.6,6,12.3,5c1.8-1.1,5.3,0.2,8.9,3.4c2.7,2.4,5.5,6.1,8,10.2
	c2.5,4.3,4.3,8.6,5,12.2c0.9,4.6,0.2,8.1-1.6,9.2c-1.7,1-4.9-0.1-8.3-3C21.5,34.6,18.4,30.8,15.8,26.4L15.8,26.4z"/>
</svg>
