<?xml version="1.0" encoding="utf-8"?>
<!-- Generator: Adobe Illustrator 25.0.0, SVG Export Plug-In . SVG Version: 6.00 Build 0)  -->
<svg version="1.1" id="Layer_1" xmlns="http://www.w3.org/2000/svg" xmlns:xlink="http://www.w3.org/1999/xlink" x="0px" y="0px"
	 viewBox="0 0 45 45" style="enable-background:new 0 0 45 45;" xml:space="preserve">
<style type="text/css">
	.st0{fill:#FEFEFE;}
</style>
<g>
	<path class="st0" d="M31.7,35.7c-4.7,2.5-11.1,2.6-17.6,0.1c-5-1.9-9.3-5.3-12.4-9.6c1.4,1,2.9,1.8,4.6,2.5c6.7,2.8,13.3,2.6,18,0
		C18.1,24.3,12.6,19,7.7,13.2c-0.8-0.8-1.5-1.8-2.2-2.8c5.1,4,10.4,7.8,16.1,11c-4.2-4-7.9-8.3-11.4-12.8
		c5.7,5.3,12.1,9.9,18.7,13.9l0.7,0.4c0.1-0.4,0.4-1,0.6-1.4c1.5-5.1-0.3-11-4.2-15.7c9,4.9,14.4,14.2,12.2,21.8
		c0,0.1-0.1,0.4-0.1,0.6l0.1,0.1c4.4,5,3.2,10.3,2.6,9.3C38.4,33.5,33.9,34.9,31.7,35.7L31.7,35.7z"/>
</g>
</svg>
