<?xml version="1.0" encoding="utf-8"?>
<!-- Generator: Adobe Illustrator 25.0.0, SVG Export Plug-In . SVG Version: 6.00 Build 0)  -->
<svg version="1.1" id="Layer_1" xmlns:sketch="http://www.bohemiancoding.com/sketch/ns"
	 xmlns="http://www.w3.org/2000/svg" xmlns:xlink="http://www.w3.org/1999/xlink" x="0px" y="0px" viewBox="0 0 45 45"
	 style="enable-background:new 0 0 45 45;" xml:space="preserve">
<style type="text/css">
	.st0{fill-rule:evenodd;clip-rule:evenodd;fill:#FFFFFF;}
</style>
<desc>Created with Sketch.</desc>
<path class="st0" d="M41.5,21L33.3,6.7c-0.5-0.9-1.6-1.5-2.6-1.5H14.3c-1.1,0-2.1,0.6-2.6,1.5L3.5,21c-0.5,0.9-0.5,2.1,0,3l8.2,14.3
	c0.5,0.9,1.6,1.5,2.6,1.5h16.4c1.1,0,2.1-0.6,2.6-1.5L41.5,24C42.1,23.1,42.1,21.9,41.5,21z M30.8,30.9c0.1,0.2-0.1,0.6-0.3,0.6
	h-2.8c-0.1,0-0.3-0.1-0.3-0.2l-4.8-8.6c0,0,0-0.1,0-0.2c0,0,0,0.1,0,0.2l-4.8,8.6c-0.1,0.1-0.2,0.2-0.3,0.2h-2.9
	c-0.3,0-0.5-0.3-0.3-0.6l4.7-8.4l-4.7-8.4c-0.1-0.2,0-0.5,0.2-0.5c0,0,0,0,0.1,0h2.8c0.1,0,0.2,0.1,0.3,0.2l4.8,8.6c0,0,0,0.1,0,0.2
	c0,0,0-0.1,0-0.2l4.8-8.6c0.1-0.1,0.2-0.2,0.3-0.2h2.9c0.3,0,0.5,0.3,0.3,0.5l-4.7,8.5L30.8,30.9z"/>
</svg>
