<?xml version="1.0" encoding="utf-8"?>
<!-- Generator: Adobe Illustrator 25.0.0, SVG Export Plug-In . SVG Version: 6.00 Build 0)  -->
<svg version="1.1" id="Capa_1" xmlns="http://www.w3.org/2000/svg" xmlns:xlink="http://www.w3.org/1999/xlink" x="0px" y="0px"
	 viewBox="0 0 512 512" style="enable-background:new 0 0 512 512;" xml:space="preserve">
<style type="text/css">
	.st0{fill:#26E4F7;}
</style>
<g>
	<g>
		<g>
			<path class="st0" d="M160.4,483.5H76.5V339.4l41.9-34l41.9,34L160.4,483.5L160.4,483.5z"/>
		</g>
	</g>
	<g>
		<g>
			<path class="st0" d="M328.1,483.5h-83.9V240l41.9-34l41.9,34v243.5H328.1z"/>
		</g>
	</g>
</g>
<g>
	<path d="M509.1,476.4L494,461.3c-3.9-3.9-10.2-3.9-14.1,0c-3.3,3.3-3.8,8.3-1.5,12.1H422v-283c0-3-1.4-5.9-3.7-7.8l-41.9-34
		c-3.7-3-8.9-3-12.6,0l-41.9,34c-2.3,1.9-3.7,4.8-3.7,7.8v283.1h-63.9V289.7c0-3-1.4-5.9-3.7-7.8l-41.9-34c-3.7-3-8.9-3-12.6,0
		l-41.9,34c-2.3,1.9-3.7,4.8-3.7,7.8v183.8H35.1V37.1c3.8,2.3,8.9,1.8,12.2-1.5c3.9-3.9,3.9-10.2,0-14.1L32.2,6.4
		c-3.9-3.9-10.2-3.9-14.1,0L2.9,21.5C-1,25.4-1,31.7,2.9,35.6c2,2,4.5,2.9,7.1,2.9c1.8,0,3.5-0.5,5.1-1.4v446.3c0,5.5,4.5,10,10,10
		h453.2c-2.2,3.8-1.7,8.8,1.5,12.1c2,2,4.5,2.9,7.1,2.9s5.1-1,7.1-2.9l15.1-15.1c1.9-1.9,2.9-4.4,2.9-7.1S510.9,478.3,509.1,476.4
		L509.1,476.4z M170.4,473.5v-179l31.9-25.9l31.9,25.9v179H170.4L170.4,473.5z M338.1,473.5V195.1l31.9-25.9l31.9,25.9v278.3h-63.8
		V473.5z"/>
	<path d="M84.1,282c1.8,0,3.6-0.5,5.2-1.5l252-153.3c-0.2,4.2,2.4,8.3,6.6,9.8c1.1,0.4,2.3,0.6,3.4,0.6c4.1,0,7.9-2.5,9.4-6.6
		l9.7-27c1.1-3.1,0.6-6.6-1.3-9.3c-2-2.7-5.1-4.2-8.4-4.1l-30.6,1.1c-5.5,0.2-9.8,4.8-9.6,10.4c0.2,4.8,3.6,8.6,8.1,9.5L78.9,263.5
		c-4.7,2.9-6.2,9-3.3,13.7C77.5,280.3,80.8,282,84.1,282L84.1,282z"/>
</g>
</svg>
