<?xml version="1.0" encoding="utf-8"?>
<!-- Generator: Adobe Illustrator 25.0.0, SVG Export Plug-In . SVG Version: 6.00 Build 0)  -->
<svg version="1.1" id="Layer_1" xmlns="http://www.w3.org/2000/svg" xmlns:xlink="http://www.w3.org/1999/xlink" x="0px" y="0px"
	 viewBox="0 0 512 512" style="enable-background:new 0 0 512 512;" xml:space="preserve">
<style type="text/css">
	.st0{fill-rule:evenodd;clip-rule:evenodd;fill:#FF922E;}
</style>
<g>
	<path class="st0" d="M282.6,222c-16.6,0-31.6,6.7-42.4,17.6c-37.5,37-10.9,102.6,42.4,102.4C362.2,338.8,362.2,225.2,282.6,222
		L282.6,222z"/>
	<path class="st0" d="M183.6,183c86.4-87.4,239.4-25.5,239,99c0,77.3-62.7,140-140,140C158.1,422.4,96.2,269.4,183.6,183L183.6,183z
		 M282.6,102c-49.7,0-94.7,20.1-127.3,52.7C42.9,265.8,122.6,462.5,282.6,462C521.4,452.5,521.3,111.4,282.6,102z"/>
</g>
<path d="M282.6,52c-59.8,0-114.4,23-155.3,60.5L112,97.2l8.3-28c1-3.5,0.1-7.3-2.5-9.9L61.3,2.9c-2.5-2.5-6.1-3.5-9.5-2.6
	s-6.1,3.5-7.1,6.9l-8.4,28.5L7.8,44.1c-3.4,1-6,3.7-6.9,7.1c-0.9,3.4,0.1,7,2.6,9.5L59.8,117c2.6,2.6,6.4,3.6,9.9,2.5l28-8.3
	l15.3,15.3C-21.3,271.1,83.2,512.7,282.6,512C587.7,499.4,587.6,64.6,282.6,52L282.6,52z M29.6,58.5l17.6-5.2c3.3-1,5.8-3.5,6.8-6.8
	L59.1,29l40.2,40.2L92.6,92l-22.8,6.7L29.6,58.5z M282.6,492C101,492.6,5.4,272.9,127.3,140.8l70.8,70.8
	c-59.4,70.2-8.3,180.8,84.5,180.4c60.7,0,110-49.3,110-110c0.4-92.8-110.2-143.9-180.4-84.5l-70.8-70.8
	C273.5,4.8,493.2,100.4,492.6,282C492.6,397.8,398.4,492,282.6,492z M275.5,289.1c9.7,9,23.2-4.4,14.1-14.1l-63.2-63.2
	c57.7-46.9,146.5-4.8,146.1,70.3c0,49.6-40.4,90-90,90c-75.1,0.3-117.2-88.4-70.3-146.1L275.5,289.1z"/>
</svg>
