<?xml version="1.0" encoding="utf-8"?>
<!-- Generator: Adobe Illustrator 25.0.0, SVG Export Plug-In . SVG Version: 6.00 Build 0)  -->
<svg version="1.1" id="Layer_1" xmlns="http://www.w3.org/2000/svg" xmlns:xlink="http://www.w3.org/1999/xlink" x="0px" y="0px"
	 viewBox="0 0 512 512" style="enable-background:new 0 0 512 512;" xml:space="preserve">
<style type="text/css">
	.st0{fill-rule:evenodd;clip-rule:evenodd;fill:#FF7CE9;}
</style>
<path d="M374.8,212.9L264.8,5.3c-3.6-7-14.1-7-17.7,0l-110,207.6c-1.3,2.4-1.5,5.2-0.7,7.8l42.6,130c1.4,4.2,5.3,6.9,9.5,6.9
	c1,0,2.1-0.2,3.1-0.5c5.2-1.7,8.1-7.4,6.4-12.6l-41.3-126L246,50.2v143.6c-35.6,12-28,63.8,10,64.7c38-0.9,45.6-52.7,10-64.7V50.2
	l89.2,168.3l-40.6,123.9c-1.7,5.2,1.1,10.9,6.4,12.6s10.9-1.1,12.6-6.4l42-128C376.4,218.1,376.1,215.3,374.8,212.9L374.8,212.9z
	 M256,238.5c-7.2,0-13.1-5.9-13.1-13.1c0.7-17.4,25.5-17.4,26.3,0C269.1,232.6,263.2,238.5,256,238.5z"/>
<path class="st0" d="M329.1,462v-92c11,0,20-9,20-20s-9-20-20-20H182.9c-11,0-20,9-20,20s9,20,20,20v92H329.1z"/>
<path d="M346,452h-60v-82c0-5.5-4.5-10-10-10h-40c-5.5,0-10,4.5-10,10v82h-60c-16.5,0-30,13.5-30,30v20c0,5.5,4.5,10,10,10h220
	c5.5,0,10-4.5,10-10v-20C376,465.5,362.6,452,346,452z M246,380h20v72h-20V380z M356,492H156v-10c0-5.5,4.5-10,10-10h180
	c5.5,0,10,4.5,10,10V492z"/>
</svg>
