<?xml version="1.0" encoding="utf-8"?>
<!-- Generator: Adobe Illustrator 25.0.0, SVG Export Plug-In . SVG Version: 6.00 Build 0)  -->
<svg version="1.1" id="Layer_1" xmlns="http://www.w3.org/2000/svg" xmlns:xlink="http://www.w3.org/1999/xlink" x="0px" y="0px"
	 viewBox="0 0 512 512" style="enable-background:new 0 0 512 512;" xml:space="preserve">
<style type="text/css">
	.st0{fill-rule:evenodd;clip-rule:evenodd;fill:#C9BC14;}
	.st1{fill:#FFFFFF;}
</style>
<path class="st0" d="M256,67.7L93,161.9v188.3l163,94.1l163-94.1V161.9L256,67.7z"/>
<path class="st1" d="M469,189.2c5.5,0,10-4.5,10-10V133c0-3.6-1.9-6.9-5-8.7l-40-23.1c-4.8-2.8-10.9-1.1-13.7,3.7
	c-2.8,4.8-1.1,10.9,3.7,13.7l25,14.4l-80,46.2l-103-59.5V27.3l25,14.4c4.7,2.7,10.9,1.2,13.7-3.7c2.8-4.8,1.1-10.9-3.7-13.7l-40-23
	c-3.1-1.8-6.9-1.8-10,0l-40,23.1c-4.8,2.8-6.4,8.9-3.7,13.7c2.8,4.8,8.9,6.4,13.7,3.7l25-14.4v92.4l-103,59.5L63,133l25-14.4
	c11.2-7.1,1.7-23.5-10-17.3l-40,23.1c-3.1,1.8-5,5.1-5,8.7v46.2c0.5,13.3,19.5,13.3,20,0v-28.9l80,46.2v119l-80,46.2v-28.9
	c-0.5-13.3-19.5-13.3-20,0V379c0,3.6,1.9,6.9,5,8.7l40,23.1c4.7,2.7,10.9,1.2,13.7-3.7c2.8-4.8,1.1-10.9-3.7-13.7L63,379l80-46.2
	l103,59.5v92.4l-25-14.4c-4.8-2.8-10.9-1.1-13.7,3.7c-2.8,4.8-1.1,10.9,3.7,13.7l40,23.1c3.1,1.8,6.9,1.8,10,0l40-23.1
	c4.8-2.8,6.4-8.9,3.7-13.7c-2.8-4.8-8.9-6.4-13.7-3.7l-25,14.4v-92.4l103-59.5l80,46.2l-25,14.4c-4.8,2.8-6.4,8.9-3.7,13.7
	c2.8,4.8,9,6.4,13.7,3.7l40-23.1c3.1-1.8,5-5.1,5-8.7v-46.2c-0.5-13.3-19.5-13.3-20,0v28.9l-80-46.2v-119l80-46.2v28.9
	C459,184.7,463.5,189.2,469,189.2L469,189.2z M359,315.5l-93,53.7V261.8l93-53.7V315.5L359,315.5z M256,137l93,53.7l-93,53.7
	l-93-53.7L256,137z M153,208.1l93,53.7v107.4l-93-53.7V208.1z"/>
</svg>
