<?xml version="1.0" encoding="UTF-8"?>
<svg id="Layer_2" data-name="Layer 2" xmlns="http://www.w3.org/2000/svg" xmlns:xlink="http://www.w3.org/1999/xlink" viewBox="0 0 142.78 142.78">
  <defs>
    <style>
      .cls-1 {
        fill: url(#linear-gradient-2);
      }

      .cls-2 {
        fill: url(#linear-gradient-4);
      }

      .cls-3 {
        fill: url(#linear-gradient-3);
      }

      .cls-4 {
        fill: url(#linear-gradient);
      }
    </style>
    <linearGradient id="linear-gradient" x1="14.42" y1="85.39" x2="29.52" y2="35.79" gradientUnits="userSpaceOnUse">
      <stop offset="0" stop-color="#00cae5"/>
      <stop offset="1" stop-color="#2e3be5"/>
    </linearGradient>
    <linearGradient id="linear-gradient-2" x1="105.41" y1="155.12" x2="104.91" y2="21.43" xlink:href="#linear-gradient"/>
    <linearGradient id="linear-gradient-3" x1="37.63" y1="-2.75" x2="37.63" y2="130.34" xlink:href="#linear-gradient"/>
    <linearGradient id="linear-gradient-4" x1="147.79" y1="23.85" x2="43.81" y2="32.15" xlink:href="#linear-gradient"/>
  </defs>
  <g id="Layer_1" data-name="Layer 1">
    <g>
      <path class="cls-4" d="M42.35,49.29c-1.98,2.3-3.79,4.74-5.41,7.29-3.15,4.94-5.6,10.3-7.28,15.91-1.54,5.14-2.41,10.5-2.6,15.91,0,.27-.02.55-.02.83H.01c0-.37.01-.73.02-1.08.16-5.93.91-11.87,2.21-17.62,1.38-6.08,3.4-12.02,5.98-17.64,2.87-6.25,6.46-12.18,10.68-17.64,1.11-1.44,2.27-2.85,3.46-4.22,1.46.67,2.88,1.41,4.26,2.24,3.25,1.95,6.25,4.31,8.92,7.04,1.52,1.55,2.94,3.22,4.21,4.98.94,1.28,1.8,2.61,2.59,3.98Z"/>
      <path class="cls-1" d="M118.67,33.5v109.29h-27.01V27.02c1.19.01,2.4.07,3.58.15,6.26.45,12.38,1.8,18.19,4.04,1.78.68,3.53,1.45,5.24,2.29Z"/>
      <path class="cls-3" d="M75.25,71.39c0,6.04-.75,12.04-2.25,17.84-1.62,6.27-4.08,12.28-7.31,17.86-3.11,5.39-6.93,10.36-11.35,14.78-4.81,4.81-10.27,8.9-16.21,12.16-6.19,3.4-12.85,5.85-19.78,7.28-4.73.98-9.6,1.47-14.49,1.47H0v-27.01h3.86c1.51,0,3.01-.08,4.47-.23,6.01-.6,11.72-2.38,16.97-5.29,3.64-2.01,6.98-4.53,9.94-7.49.08-.08.15-.15.21-.22l.09-.1c4.39-4.47,7.72-9.7,9.89-15.53,1.86-4.96,2.8-10.18,2.8-15.53s-.94-10.57-2.8-15.53c-.84-2.28-1.88-4.47-3.09-6.57-.79-1.37-1.65-2.7-2.59-3.98-1.27-1.76-2.69-3.43-4.21-4.98-2.67-2.73-5.67-5.09-8.92-7.04-1.38-.83-2.8-1.58-4.26-2.24-5.77-2.65-12.09-4.03-18.51-4.03H0V0h3.86c14.67,0,28.64,4.37,40.6,12.66.72.5,1.44,1.01,2.14,1.54,1.55,1.16,3.06,2.39,4.49,3.65,3.82,3.37,7.3,7.17,10.34,11.3.89,1.22,1.75,2.47,2.56,3.74.6.93,1.17,1.86,1.71,2.8,3.23,5.58,5.69,11.58,7.31,17.85,1.5,5.8,2.25,11.8,2.25,17.85Z"/>
      <path class="cls-2" d="M142.78,16.42v36.53l-6.62-6.78c-1.91-1.95-3.97-3.81-6.14-5.51-3.54-2.79-7.35-5.19-11.36-7.16-1.71-.84-3.45-1.61-5.24-2.29-5.81-2.23-11.93-3.59-18.19-4.04-1.19-.08-2.39-.14-3.58-.15-.32,0-.65,0-.96,0-9.23,0-18.38,2.03-26.7,5.88-.81-1.27-1.67-2.53-2.56-3.74-3.04-4.13-6.52-7.93-10.34-11.3-1.43-1.26-2.94-2.49-4.49-3.65-.7-.53-1.42-1.04-2.14-1.54C58.42,4.37,74.34,0,90.69,0c1.71,0,3.41.05,5.05.14,6.83.37,13.61,1.52,20.15,3.41,8.95,2.59,17.43,6.53,25.19,11.73l1.71,1.15Z"/>
    </g>
  </g>
</svg>