<?xml version="1.0" encoding="utf-8"?>
<!-- Generator: Adobe Illustrator 25.0.0, SVG Export Plug-In . SVG Version: 6.00 Build 0)  -->
<svg version="1.1" id="Layer_1" xmlns="http://www.w3.org/2000/svg" xmlns:xlink="http://www.w3.org/1999/xlink" x="0px" y="0px"
	 viewBox="0 0 150 150" style="enable-background:new 0 0 150 150;" xml:space="preserve">
<style type="text/css">
	.st0{fill:#EE4323;}
</style>
<path class="st0" d="M57.8,132.8c-6.9-3-13.4-10.6-13.4-18.4c0-8.5,5.4-15.7,12.1-20.5c-0.8,3-1.2,5.8,0.8,8.5
	c1.9,2.5,5.1,3.8,8.2,3.1c7.2-1.6,7.5-9.4,3.2-14c-4.2-4.5-8.3-9.7-6.7-16.3c0.8-3.3,2.8-6.4,5.4-8.6c-2,5.2,3.6,10.3,7.3,12.9
	c6.4,4.4,13.5,7.8,19.4,13c6.2,5.5,10.8,12.8,9.9,21.4c-1,9.3-8.4,15.7-16.6,19c17.4-3.9,35.5-17.4,35.8-36.7
	c0.3-15.9-10.6-28.2-24.1-35.2l-0.7-0.4c0.4,0.9,0.5,1.7,0.5,2.4c0.1-0.5,0.2-1,0.2-1.6c0,0.6-0.1,1.3-0.2,1.9l0-0.3
	c-0.2,0.8-0.5,1.7-1,2.4L98,65c-2.7,4.5-10,5.4-13.6,0.8c-5.8-7.5,0.1-15.5,1-23.4c1-9.9-5.2-19.5-12.9-25.3
	c4.2,6.9-1.3,15.9-5.8,21c-4.3,4.9-9.6,9-14.4,13.5c-5.1,4.8-10.1,9.8-14.3,15.5c-8.4,11.3-13.6,25.4-9.8,39.5
	C31.9,120.7,44.1,129.6,57.8,132.8L57.8,132.8z"/>
</svg>
