<?xml version="1.0" encoding="utf-8"?>
<!-- Generator: Adobe Illustrator 25.0.0, SVG Export Plug-In . SVG Version: 6.00 Build 0)  -->
<svg version="1.1" id="Layer_1" xmlns="http://www.w3.org/2000/svg" xmlns:xlink="http://www.w3.org/1999/xlink" x="0px" y="0px"
	 viewBox="0 0 150 150" style="enable-background:new 0 0 150 150;" xml:space="preserve">
<style type="text/css">
	.st0{opacity:0.5;fill:#FFFFFF;}
	.st1{opacity:0.2;fill:#FFFFFF;}
	.st2{fill:#EBEBEB;}
	.st3{fill:#FFFFFF;}
</style>
<polygon id="polygon2989" class="st0" points="126,17.2 116.7,121.2 75,132.8 33.3,121.2 24.1,17.2 "/>
<polygon id="polygon2991" class="st1" points="108.8,114.6 116.7,25.7 75,25.7 75,124 "/>
<polygon id="polygon2993" class="st2" points="45.3,64.3 46.5,77.1 75,77.1 75,64.3 "/>
<polygon id="polygon2995" class="st2" points="75,38.5 75,38.5 43,38.5 44.2,51.2 75,51.2 "/>
<polygon id="polygon2997" class="st2" points="75,110.7 75,97.4 75,97.5 60.8,93.6 59.9,83.4 53,83.4 47,83.4 48.8,103.5 "/>
<polygon id="polygon3005" class="st3" points="90.7,77.1 89.2,93.6 75,97.4 75,110.7 101.1,103.5 101.3,101.3 104.3,67.7 
	104.6,64.3 107,38.5 75,38.5 75,51.2 93,51.2 91.8,64.3 75,64.3 75,77.1 "/>
</svg>
