<?xml version="1.0" encoding="utf-8"?>
<!-- Generator: Adobe Illustrator 25.0.0, SVG Export Plug-In . SVG Version: 6.00 Build 0)  -->
<svg version="1.1" id="Layer_1" xmlns="http://www.w3.org/2000/svg" xmlns:xlink="http://www.w3.org/1999/xlink" x="0px" y="0px"
	 viewBox="0 0 150 150" style="enable-background:new 0 0 150 150;" xml:space="preserve">
<style type="text/css">
	.st0{fill:#264DE4;}
	.st1{fill:#2965F1;}
	.st2{fill:#EBEBEB;}
	.st3{fill:#FFFFFF;}
</style>
<g id="layer1" transform="translate(-193.633,-276.3622)">
	<g id="g3013" transform="translate(119,276.3622)">
		<polygon id="polygon2989" class="st0" points="200.6,17.2 191.3,121.2 149.6,132.8 107.9,121.2 98.7,17.2 		"/>
		<polygon id="polygon2991" class="st1" points="183.4,114.6 191.3,25.7 149.6,25.7 149.6,124 		"/>
		<polygon id="polygon2993" class="st2" points="119.9,64.3 121.1,77.1 149.6,77.1 149.6,64.3 		"/>
		<polygon id="polygon2995" class="st2" points="149.6,38.5 149.6,38.5 117.6,38.5 118.8,51.2 149.6,51.2 		"/>
		<polygon id="polygon2997" class="st2" points="149.6,110.7 149.6,97.4 149.6,97.5 135.4,93.6 134.5,83.4 127.6,83.4 121.6,83.4 
			123.4,103.5 149.6,110.7 		"/>
		<polygon id="polygon3005" class="st3" points="165.3,77.1 163.8,93.6 149.6,97.4 149.6,110.7 175.7,103.5 175.9,101.3 178.9,67.7 
			179.2,64.3 181.6,38.5 149.6,38.5 149.6,51.2 167.6,51.2 166.4,64.3 149.6,64.3 149.6,77.1 		"/>
	</g>
</g>
</svg>
