<?xml version="1.0" encoding="utf-8"?>
<!-- Generator: Adobe Illustrator 25.0.0, SVG Export Plug-In . SVG Version: 6.00 Build 0)  -->
<svg version="1.1" id="Layer_1" xmlns="http://www.w3.org/2000/svg" xmlns:xlink="http://www.w3.org/1999/xlink" x="0px" y="0px"
	 viewBox="0 0 150 150" style="enable-background:new 0 0 150 150;" xml:space="preserve">
<style type="text/css">
	.st0{fill:#FFFFFF;stroke:#FFFFFF;stroke-width:2;stroke-miterlimit:10;}
</style>
<path class="st0" d="M137.9,72.2c-0.9-0.9-12.5-15.5-14.5-17.9c-2.1-2.4-3-2-4.4-1.8s-16,2.7-17.6,2.9c-1.7,0.3-2.7,0.9-1.7,2.4
	c0.9,1.4,10.5,14.9,12.7,18.1L74,85L43.5,33.9c-1.2-1.8-1.5-2.4-4.2-2.3c-2.7,0.2-24,2-25.5,2c-1.5,0.2-3.2,0.8-1.7,4.4
	c1.5,3.6,25.6,55.5,26.2,57s2.4,3.9,6.5,3c4.2-1.1,18.7-4.8,26.7-6.9c4.2,7.5,12.7,22.9,14.3,25.2c2.1,3,3.6,2.4,6.8,1.5
	c2.6-0.8,39.5-14,41.1-14.8c1.7-0.8,2.7-1.2,1.5-2.9c-0.9-1.2-10.5-14.3-15.7-21.1c3.5-0.9,16-4.2,17.3-4.7
	C138.5,73.8,138.8,73.1,137.9,72.2z M68.1,86.5c-0.5,0.2-22,5.3-23.1,5.6c-1.2,0.3-1.2,0.2-1.2-0.3c-0.3-0.5-25.6-52.9-26.1-53.5
	c-0.3-0.6-0.3-1.2,0-1.2s20.3-1.8,20.9-1.8c0.8,0,0.6,0.2,0.9,0.6c0,0,28.2,48.7,28.6,49.4C68.9,86,68.6,86.3,68.1,86.5z
	 M128.7,97.8c0.3,0.6,0.8,0.9-0.5,1.2c-1.1,0.5-36.3,12.4-37.1,12.7c-0.8,0.3-1.2,0.5-2.1-0.9S76.6,89.7,76.6,89.7l37.5-9.8
	c0.9-0.3,1.2-0.5,1.8,0.5C116.6,81.3,128.4,97.3,128.7,97.8z M131.1,71.3c-0.9,0.2-14.6,3.6-14.6,3.6l-11.3-15.4
	c-0.3-0.5-0.6-0.9,0.2-1.1c0.8-0.2,13.6-2.4,14.2-2.6c0.6-0.2,1.1-0.3,1.8,0.8c0.8,0.9,10.4,13.3,10.9,13.7
	C132.6,70.8,132,71.1,131.1,71.3z"/>
</svg>
