<?xml version="1.0" encoding="utf-8"?>
<!-- Generator: Adobe Illustrator 25.0.0, SVG Export Plug-In . SVG Version: 6.00 Build 0)  -->
<svg version="1.1" id="Layer_1" xmlns="http://www.w3.org/2000/svg" xmlns:xlink="http://www.w3.org/1999/xlink" x="0px" y="0px"
	 viewBox="0 0 150 150" style="enable-background:new 0 0 150 150;" xml:space="preserve">
<style type="text/css">
	.st0{fill:#36A1E2;}
	.st1{fill:none;stroke:#36A1E2;stroke-width:5.1793;stroke-miterlimit:10;}
</style>
<g>
	<ellipse class="st0" cx="75" cy="74.9" rx="10.8" ry="10.8"/>
	<path class="st1" d="M75,52.9c14.5,0,28,2.1,38.2,5.6c12.3,4.2,19.8,10.6,19.8,16.4c0,6-8,12.8-21.2,17.2c-10,3.3-23.1,5-36.9,5
		c-14.1,0-27.5-1.6-37.6-5.1C24.6,87.7,17,80.8,17,74.9c0-5.8,7.2-12.1,19.3-16.3C46.5,55,60.3,52.9,75,52.9L75,52.9z"/>
	<path class="st1" d="M55.8,64c7.3-12.6,15.8-23.2,23.9-30.3c9.8-8.5,19.1-11.9,24.1-9c5.2,3,7.1,13.3,4.3,26.9
		c-2.1,10.3-7.2,22.5-14.1,34.4C87.1,98.3,79,109.1,71,116.1c-10.1,8.9-19.9,12.1-25.1,9.1c-5-2.9-6.9-12.3-4.5-24.9
		C43.4,89.7,48.5,76.7,55.8,64L55.8,64z"/>
	<path class="st1" d="M55.9,86.1c-7.3-12.6-12.2-25.3-14.3-35.9c-2.5-12.7-0.7-22.5,4.3-25.4c5.2-3,15.1,0.5,25.5,9.7
		c7.8,7,15.9,17.4,22.8,29.4c7.1,12.2,12.4,24.6,14.5,35.1c2.6,13.2,0.5,23.3-4.6,26.3c-5,2.9-14.1-0.2-23.8-8.5
		C72,109.7,63.2,98.8,55.9,86.1L55.9,86.1z"/>
</g>
</svg>
