<?xml version="1.0" encoding="utf-8"?>
<!-- Generator: Adobe Illustrator 25.0.0, SVG Export Plug-In . SVG Version: 6.00 Build 0)  -->
<svg version="1.1" id="Layer_1" xmlns="http://www.w3.org/2000/svg" xmlns:xlink="http://www.w3.org/1999/xlink" x="0px" y="0px"
	 viewBox="0 0 60 60" style="enable-background:new 0 0 60 60;" xml:space="preserve">
<style type="text/css">
	.st0{fill:#17EEFF;}
	.st1{fill:#FFFFFF;}
</style>
<rect x="9.4" y="13.4" class="st0" width="19.3" height="9"/>
<path class="st1" d="M44.5,40.5H27.1c-0.6,0-1.1,0.5-1.1,1.1v4h-7.9c-4,0-7.2-3.3-7.2-7.2s3.3-7.2,7.2-7.2h9.4
	c5.2,0,9.4-4.2,9.4-9.4s-4.2-9.4-9.4-9.4h-7.9v-4c0-0.6-0.5-1.1-1.1-1.1H1.1C0.5,7.3,0,7.8,0,8.4v10.1c0,0.6,0.5,1.1,1.1,1.1h17.3
	c0.6,0,1.1-0.5,1.1-1.1v-4h7.9c4,0,7.2,3.3,7.2,7.2s-3.3,7.2-7.2,7.2H18c-5.2,0-9.4,4.2-9.4,9.4s4.2,9.4,9.4,9.4h7.9v4
	c0,0.6,0.5,1.1,1.1,1.1h17.3c0.6,0,1.1-0.5,1.1-1.1V41.6C45.6,41,45.1,40.5,44.5,40.5z M17.4,17.4H2.2v-8h15.2V17.4z M43.4,50.6
	H28.2v-7.9h15.2C43.4,42.7,43.4,50.6,43.4,50.6z"/>
</svg>
