<?xml version="1.0" encoding="utf-8"?>
<!-- Generator: Adobe Illustrator 25.0.0, SVG Export Plug-In . SVG Version: 6.00 Build 0)  -->
<svg version="1.1" id="Layer_1" xmlns="http://www.w3.org/2000/svg" xmlns:xlink="http://www.w3.org/1999/xlink" x="0px" y="0px"
	 viewBox="0 0 60 60" style="enable-background:new 0 0 60 60;" xml:space="preserve">
<style type="text/css">
	.st0{fill:#FF8100;}
</style>
<polygon class="st0" points="16.7,26.4 23.9,21.2 21.1,12.8 12.2,12.8 9.5,21.2 "/>
<g>
	<path d="M16.4,53.5H9.9c-0.5,0-0.9-0.3-1-0.7L0.6,25.9c-0.1-0.2-0.1-0.5,0-0.6l3.3-8.9c0.2-0.4,0.6-0.7,1-0.7h11.5c0.6,0,1,0.5,1,1
		c0,0.6-0.5,1-1,1H5.6l-2.9,7.9l8,25.8h4.7v-19c0-0.6,0.5-1,1-1s1,0.5,1,1v20.2C17.4,53,17,53.5,16.4,53.5L16.4,53.5z"/>
	<path d="M22.9,53.5h-6.5c-0.6,0-1-0.5-1-1l0,0V32.3c0-0.6,0.5-1,1-1s1,0.5,1,1v19h4.7l8-25.8l-2.9-7.9H16.4c-0.6,0-1-0.5-1-1
		c0-0.6,0.5-1,1-1H28c0.5,0,0.8,0.2,1,0.7l3.3,8.9c0.1,0.2,0.1,0.5,0,0.6L24,52.7C23.8,53.2,23.4,53.5,22.9,53.5z"/>
	<path d="M27.8,17.7H5c-2.8,0-5-2.2-5-5v-1.1c0-2.8,2.2-5,5-5h22.8c2.8,0,5,2.2,5,5v1.1C32.8,15.4,30.6,17.7,27.8,17.7z M5,8.6
		c-1.6,0-2.9,1.3-2.9,2.9v1.1c0,1.6,1.3,2.9,2.9,2.9h22.8c1.6,0,2.9-1.3,2.9-2.9v-1.1c0-1.6-1.3-2.9-2.9-2.9H5z"/>
</g>
</svg>
