<?xml version="1.0" encoding="utf-8"?>
<!-- Generator: Adobe Illustrator 25.0.0, SVG Export Plug-In . SVG Version: 6.00 Build 0)  -->
<svg version="1.1" id="Layer_1" xmlns="http://www.w3.org/2000/svg" xmlns:xlink="http://www.w3.org/1999/xlink" x="0px" y="0px"
	 viewBox="0 0 60 60" style="enable-background:new 0 0 60 60;" xml:space="preserve">
<style type="text/css">
	.st0{fill:#FFE745;}
	.st1{fill:#FFFFFF;stroke:#FFFFFF;stroke-width:0.25;stroke-miterlimit:10;}
</style>
<circle class="st0" cx="30.7" cy="36.6" r="8.5"/>
<g>
	<g>
		<path class="st1" d="M25.3,41.5c-5.5,0-10.4-4-11.3-9.4c-0.6-3,0.1-6.1,1.8-8.6c1.8-2.5,4.4-4.3,7.4-4.9c0.7-0.1,1.4-0.2,2.2-0.2
			c5.5,0,10.4,4,11.3,9.4c1.2,6.2-2.9,12.3-9.2,13.5C26.7,41.3,25.9,41.5,25.3,41.5z M25.3,20.5c-0.6,0-1.2,0.1-1.8,0.2
			c-5.1,1-8.5,5.9-7.6,11c0.9,4.4,4.7,7.6,9.2,7.6c0.6,0,1.2-0.1,1.8-0.2c5.1-1,8.5-5.9,7.6-11C33.7,23.8,29.8,20.5,25.3,20.5z"/>
	</g>
	<g>
		<path class="st1" d="M25.3,55.3c-5.1,0-10-1.5-14.2-4.4c-5.7-3.8-9.5-9.6-10.7-16.3c-2.5-13.7,6.5-27,20.2-29.5
			c4.6-0.9,9.4-0.4,13.7,1.2l-0.7,1.9c-4-1.5-8.4-1.8-12.6-1.1C8.5,9.5,0.2,21.7,2.5,34.3c1.2,6.1,4.6,11.4,9.7,14.9
			c5.2,3.6,11.3,4.9,17.4,3.7c12.7-2.4,21-14.5,18.6-27.2c-0.1-0.9-0.3-1.6-0.6-2.4l2.1-0.6c0.2,0.9,0.4,1.8,0.6,2.5
			c2.5,13.7-6.5,27-20.2,29.5C28.5,55.1,26.8,55.3,25.3,55.3z"/>
	</g>
</g>
</svg>
