<?xml version="1.0" encoding="utf-8"?>
<!-- Generator: Adobe Illustrator 25.0.0, SVG Export Plug-In . SVG Version: 6.00 Build 0)  -->
<svg version="1.1" id="Layer_1" xmlns="http://www.w3.org/2000/svg" xmlns:xlink="http://www.w3.org/1999/xlink" x="0px" y="0px"
	 viewBox="0 0 150 150" style="enable-background:new 0 0 150 150;" xml:space="preserve">
<style type="text/css">
	.st0{fill:#FFFFFF;stroke:#FFFFFF;stroke-width:4;stroke-miterlimit:10;}
	.st1{fill:url(#SVGID_1_);}
</style>
<path class="st0" d="M75.9,10.6c-35.7,0-64.6,28.9-64.6,64.6s28.9,64.6,64.6,64.6s64.6-28.9,64.6-64.6S111.5,10.6,75.9,10.6z
	 M125.5,54.6c0.6,1.4,2.2,2.1,3.6,1.6c0.5,1.4,1,2.9,1.4,4.4l-33.2,6.9l-10.6,4.3c-0.2-0.6-0.4-1.1-0.7-1.7l10.5-4.5L124.8,47
	c0.8,1.3,1.5,2.7,2.1,4.1C125.5,51.7,124.9,53.2,125.5,54.6z M108.6,32.6c1.2,0.9,2.9,0.7,3.9-0.5c1.2,1,2.3,2,3.4,3.1
	s2.1,2.2,3.1,3.4c-1.2,1-1.4,2.7-0.5,3.9s2.6,1.4,3.9,0.6c0.9,1.3,1.7,2.6,2.4,3.9L94.5,62.2L85.4,69c-0.3-0.5-0.7-1-1.1-1.4l9-7.1
	l22.6-25.3L90.5,57.8l-7.1,9C83,66.4,82.5,66,82,65.7l6.8-9.1l15.3-30.3c1.3,0.8,2.6,1.6,3.9,2.4C107.1,30,107.3,31.7,108.6,32.6z
	 M96.4,25.6c1.4,0.6,3-0.1,3.6-1.4c1.4,0.7,2.7,1.4,4.1,2.1L85.5,54.6L81,65.2c-0.5-0.3-1.1-0.5-1.7-0.7l4.3-10.6l6.9-33.2
	c1.5,0.4,2.9,0.9,4.4,1.4C94.4,23.4,95,25,96.4,25.6z M65.7,19.6c0.3,1.5,1.6,2.5,3.1,2.3s2.6-1.6,2.4-3.1c1.5-0.1,3-0.2,4.6-0.2
	c1.5,0,3.1,0.1,4.6,0.2c-0.1,1.5,0.9,2.9,2.4,3.1s2.9-0.8,3.1-2.3c1.5,0.3,3,0.6,4.5,1L79.9,52.9l-1.6,11.3
	c-0.6-0.1-1.2-0.2-1.8-0.2l1.4-11.4L76,18.7l-1.9,33.9L75.5,64c-0.6,0-1.2,0.1-1.8,0.2l-1.6-11.3L61.3,20.7
	C62.7,20.3,64.2,19.9,65.7,19.6z M51.7,24.2c0.6,1.4,2.2,2,3.6,1.4c1.4-0.6,2.1-2.2,1.6-3.6c1.4-0.5,2.9-1,4.4-1.4l6.9,33.2
	l4.3,10.6c-0.6,0.2-1.1,0.4-1.7,0.7l-4.5-10.5L47.6,26.3C49,25.5,50.3,24.8,51.7,24.2z M29.4,43.1c1.2,0.9,2.9,0.6,3.9-0.6
	c0.9-1.2,0.7-2.9-0.5-3.9c1-1.2,2-2.3,3.1-3.4c1.1-1.1,2.2-2.1,3.4-3.1c1,1.2,2.7,1.4,3.9,0.5c1.2-0.9,1.4-2.6,0.6-3.9
	c1.3-0.9,2.6-1.7,3.9-2.4L63,56.6l6.8,9.1c-0.5,0.3-1,0.7-1.4,1.1l-7.1-9L35.9,35.2l22.6,25.3l9,7.1c-0.4,0.4-0.8,0.9-1.1,1.4
	l-9.1-6.8L27,47C27.7,45.6,28.5,44.3,29.4,43.1z M27,47l28.4,18.6l10.5,4.5c-0.3,0.5-0.5,1.1-0.7,1.7l-10.6-4.3l-33.2-6.9
	c0.4-1.5,0.9-2.9,1.4-4.4c1.4,0.5,3-0.2,3.6-1.6c0.6-1.4-0.1-3-1.4-3.6C25.5,49.6,26.2,48.3,27,47z M19.6,79.8
	c-0.1-1.5-0.2-3-0.2-4.6c0-1.5,0.1-3.1,0.2-4.6c1.5,0.1,2.9-0.9,3.1-2.4s-0.8-2.9-2.3-3.1c0.3-1.5,0.6-3,1-4.5l32.2,10.6l11.3,1.6
	c-0.1,0.6-0.2,1.2-0.2,1.8l-11.4-1.4l-33.9,1.9L53.3,77l11.4-1.4c0,0.6,0.1,1.2,0.2,1.8L53.6,79L21.3,89.8c-0.4-1.5-0.7-3-1-4.5
	c1.5-0.3,2.5-1.6,2.3-3.1C22.5,80.7,21.1,79.6,19.6,79.8z M26.3,95.7c-0.6-1.4-2.2-2.1-3.6-1.6c-0.5-1.4-1-2.9-1.4-4.4l33.2-6.9
	l10.6-4.3c0.2,0.6,0.4,1.1,0.7,1.7l-10.5,4.5L27,103.4c-0.8-1.3-1.5-2.7-2.1-4.1C26.2,98.7,26.9,97.1,26.3,95.7z M43.2,117.8
	c-1.2-0.9-2.9-0.7-3.9,0.5c-1.2-1-2.3-2-3.4-3.1c-1.1-1.1-2.1-2.2-3.1-3.4c1.2-1,1.4-2.7,0.5-3.9c-0.9-1.2-2.6-1.4-3.9-0.6
	c-0.9-1.3-1.7-2.6-2.4-3.9l30.3-15.3l9.1-6.8c0.3,0.5,0.7,1,1.1,1.4l-9,7.1l-22.6,25.3l25.3-22.6l7.1-9c0.4,0.4,0.9,0.8,1.4,1.1
	l-6.8,9.1L47.6,124c-1.3-0.8-2.6-1.6-3.9-2.4C44.6,120.4,44.4,118.7,43.2,117.8z M55.3,124.8c-1.4-0.6-3,0.1-3.6,1.4
	c-1.4-0.7-2.7-1.4-4.1-2.1l18.6-28.4l4.5-10.5c0.5,0.3,1.1,0.5,1.7,0.7l-4.3,10.6l-6.9,33.2c-1.5-0.4-2.9-0.9-4.4-1.4
	C57.4,126.9,56.7,125.4,55.3,124.8z M86,130.7c-0.3-1.5-1.6-2.5-3.1-2.3s-2.6,1.6-2.4,3.1c-1.5,0.1-3,0.2-4.6,0.2
	c-1.5,0-3.1-0.1-4.6-0.2c0.1-1.5-0.9-2.9-2.4-3.1c-1.5-0.2-2.9,0.8-3.1,2.3c-1.5-0.3-3-0.6-4.5-1l10.6-32.2l1.6-11.3
	c0.6,0.1,1.2,0.2,1.8,0.2l-1.4,11.4l1.9,33.9l1.9-33.9l-1.4-11.4c0.6,0,1.2-0.1,1.8-0.2l1.6,11.3l10.6,32.2
	C89,130.1,87.5,130.5,86,130.7z M100,126.2c-0.6-1.4-2.2-2-3.6-1.4s-2.1,2.2-1.6,3.6c-1.4,0.5-2.9,1-4.4,1.4l-6.9-33.2L79.2,86
	c0.6-0.2,1.1-0.4,1.7-0.7l4.5,10.5l18.6,28.4C102.8,124.9,101.4,125.6,100,126.2z M122.3,107.3c-1.2-0.9-2.9-0.6-3.9,0.6
	c-0.9,1.2-0.7,2.9,0.5,3.9c-1,1.2-2,2.3-3.1,3.4s-2.2,2.1-3.4,3.1c-1-1.2-2.7-1.4-3.9-0.5c-1.2,0.9-1.4,2.6-0.6,3.9
	c-1.3,0.9-2.6,1.7-3.9,2.4L88.9,93.8L82,84.7c0.5-0.3,1-0.7,1.4-1.1l7.1,9l25.3,22.6L93.2,89.8l-9-7.1c0.4-0.4,0.8-0.9,1.1-1.4
	l9.1,6.8l30.3,15.3C124,104.8,123.2,106.1,122.3,107.3z M124.8,103.4L96.4,84.8l-10.5-4.5c0.3-0.5,0.5-1.1,0.7-1.7l10.6,4.3
	l33.2,6.9c-0.4,1.5-0.9,2.9-1.4,4.4c-1.4-0.5-3,0.2-3.6,1.6s0.1,3,1.4,3.6C126.2,100.7,125.5,102.1,124.8,103.4z M130.4,89.8
	L98.2,79.2l-11.3-1.6c0.1-0.6,0.2-1.2,0.2-1.8l11.4,1.4l33.9-1.9l-33.9-1.9l-11.4,1.4c0-0.6-0.1-1.2-0.2-1.8l11.3-1.6l32.2-10.6
	c0.4,1.5,0.7,3,1,4.5c-1.5,0.3-2.5,1.6-2.3,3.1s1.6,2.6,3.1,2.4c0.1,1.5,0.2,3,0.2,4.6c0,1.5-0.1,3.1-0.2,4.6
	c-1.5-0.1-2.9,0.9-3.1,2.4c-0.2,1.5,0.8,2.9,2.3,3.1C131.2,86.8,130.8,88.3,130.4,89.8z"/>
<linearGradient id="SVGID_1_" gradientUnits="userSpaceOnUse" x1="9.3879" y1="244.5365" x2="134.2056" y2="-78.2246" gradientTransform="matrix(1 0 0 -1 0 152)">
	<stop  offset="0" style="stop-color:#2787F5"/>
	<stop  offset="0.401" style="stop-color:#1866C8"/>
	<stop  offset="1" style="stop-color:#00317F"/>
</linearGradient>
<path class="st1" d="M74.1,10.2c-35.7,0-64.6,28.9-64.6,64.6s28.9,64.6,64.6,64.6s64.6-28.9,64.6-64.6S109.8,10.2,74.1,10.2z
	 M123.7,54.3c0.6,1.4,2.2,2.1,3.6,1.6c0.5,1.4,1,2.9,1.4,4.4l-33.2,6.9l-10.6,4.3c-0.2-0.6-0.4-1.1-0.7-1.7l10.5-4.5L123,46.6
	c0.8,1.3,1.5,2.7,2.1,4.1C123.8,51.3,123.1,52.9,123.7,54.3z M106.8,32.2c1.2,0.9,2.9,0.7,3.9-0.5c1.2,1,2.3,2,3.4,3.1
	s2.1,2.2,3.1,3.4c-1.2,1-1.4,2.7-0.5,3.9s2.6,1.4,3.9,0.6c0.9,1.3,1.7,2.6,2.4,3.9L92.7,61.8l-9.1,6.8c-0.3-0.5-0.7-1-1.1-1.4l9-7.1
	l22.6-25.3L88.7,57.5l-7.1,9c-0.4-0.4-0.9-0.8-1.4-1.1l6.8-9.1L102.3,26c1.3,0.8,2.6,1.6,3.9,2.4C105.4,29.6,105.6,31.3,106.8,32.2z
	 M94.7,25.2c1.4,0.6,3-0.1,3.6-1.4c1.4,0.7,2.7,1.4,4.1,2.1L83.7,54.3l-4.5,10.5c-0.5-0.3-1.1-0.5-1.7-0.7l4.3-10.6l6.9-33.2
	c1.5,0.4,2.9,0.9,4.4,1.4C92.6,23.1,93.3,24.6,94.7,25.2z M64,19.3c0.3,1.5,1.6,2.5,3.1,2.3s2.6-1.6,2.4-3.1c1.5-0.1,3-0.2,4.6-0.2
	c1.5,0,3.1,0.1,4.6,0.2c-0.1,1.5,0.9,2.9,2.4,3.1s2.9-0.8,3.1-2.3c1.5,0.3,3,0.6,4.5,1L78.1,52.5l-1.6,11.3
	c-0.6-0.1-1.2-0.2-1.8-0.2l1.4-11.4l-1.9-33.9l-1.9,33.9l1.4,11.4c-0.6,0-1.2,0.1-1.8,0.2l-1.6-11.3L59.5,20.3
	C61,19.9,62.5,19.5,64,19.3z M50,23.8c0.6,1.4,2.2,2,3.6,1.4c1.4-0.6,2.1-2.2,1.6-3.6c1.4-0.5,2.9-1,4.4-1.4l6.9,33.2L70.8,64
	c-0.6,0.2-1.1,0.4-1.7,0.7l-4.5-10.5L45.9,25.9C47.2,25.1,48.6,24.4,50,23.8z M27.7,42.7c1.2,0.9,2.9,0.6,3.9-0.6
	c0.9-1.2,0.7-2.9-0.5-3.9c1-1.2,2-2.3,3.1-3.4c1.1-1.1,2.2-2.1,3.4-3.1c1,1.2,2.7,1.4,3.9,0.5c1.2-0.9,1.4-2.6,0.6-3.9
	c1.3-0.9,2.6-1.7,3.9-2.4l15.3,30.3l6.8,9.1c-0.5,0.3-1,0.7-1.4,1.1l-7.1-9L34.2,34.9l22.6,25.3l9,7.1c-0.4,0.4-0.8,0.9-1.1,1.4
	l-9.1-6.8L25.2,46.6C26,45.2,26.8,43.9,27.7,42.7z M25.2,46.6l28.4,18.6l10.5,4.5c-0.3,0.5-0.5,1.1-0.7,1.7l-10.6-4.3l-33.2-6.9
	c0.4-1.5,0.9-2.9,1.4-4.4c1.4,0.5,3-0.2,3.6-1.6c0.6-1.4-0.1-3-1.4-3.6C23.8,49.3,24.5,47.9,25.2,46.6z M17.8,79.4
	c-0.1-1.5-0.2-3-0.2-4.6c0-1.5,0.1-3.1,0.2-4.6c1.5,0.1,2.9-0.9,3.1-2.4s-0.8-2.9-2.3-3.1c0.3-1.5,0.6-3,1-4.5l32.2,10.6l11.3,1.6
	c-0.1,0.6-0.2,1.2-0.2,1.8l-11.4-1.4l-33.9,1.9l33.9,1.9l11.4-1.4c0,0.6,0.1,1.2,0.2,1.8l-11.3,1.6L19.6,89.4c-0.4-1.5-0.7-3-1-4.5
	c1.5-0.3,2.5-1.6,2.3-3.1C20.7,80.3,19.3,79.3,17.8,79.4z M24.5,95.4c-0.6-1.4-2.2-2.1-3.6-1.6c-0.5-1.4-1-2.9-1.4-4.4l33.2-6.9
	l10.6-4.3c0.2,0.6,0.4,1.1,0.7,1.7l-10.5,4.5L25.2,103c-0.8-1.3-1.5-2.7-2.1-4.1C24.5,98.3,25.1,96.8,24.5,95.4z M41.4,117.4
	c-1.2-0.9-2.9-0.7-3.9,0.5c-1.2-1-2.3-2-3.4-3.1c-1.1-1.1-2.1-2.2-3.1-3.4c1.2-1,1.4-2.7,0.5-3.9c-0.9-1.2-2.6-1.4-3.9-0.6
	c-0.9-1.3-1.7-2.6-2.4-3.9l30.3-15.3l9.1-6.8c0.3,0.5,0.7,1,1.1,1.4l-9,7.1l-22.6,25.3l25.3-22.6l7.1-9c0.4,0.4,0.9,0.8,1.4,1.1
	l-6.8,9.1l-15.3,30.3c-1.3-0.8-2.6-1.6-3.9-2.4C42.9,120,42.7,118.3,41.4,117.4z M53.6,124.4c-1.4-0.6-3,0.1-3.6,1.4
	c-1.4-0.7-2.7-1.4-4.1-2.1l18.6-28.4L69,84.8c0.5,0.3,1.1,0.5,1.7,0.7l-4.3,10.6l-6.9,33.2c-1.5-0.4-2.9-0.9-4.4-1.4
	C55.6,126.6,55,125,53.6,124.4z M84.3,130.4c-0.3-1.5-1.6-2.5-3.1-2.3s-2.6,1.6-2.4,3.1c-1.5,0.1-3,0.2-4.6,0.2
	c-1.5,0-3.1-0.1-4.6-0.2c0.1-1.5-0.9-2.9-2.4-3.1c-1.5-0.2-2.9,0.8-3.1,2.3c-1.5-0.3-3-0.6-4.5-1l10.6-32.2l1.6-11.3
	c0.6,0.1,1.2,0.2,1.8,0.2l-1.4,11.4l1.9,33.9L76,97.5l-1.4-11.4c0.6,0,1.2-0.1,1.8-0.2L78,97.2l10.6,32.2
	C87.3,129.7,85.8,130.1,84.3,130.4z M98.3,125.8c-0.6-1.4-2.2-2-3.6-1.4s-2.1,2.2-1.6,3.6c-1.4,0.5-2.9,1-4.4,1.4l-6.9-33.2
	l-4.3-10.6c0.6-0.2,1.1-0.4,1.7-0.7l4.5,10.5l18.6,28.4C101,124.5,99.7,125.2,98.3,125.8z M120.6,106.9c-1.2-0.9-2.9-0.6-3.9,0.6
	c-0.9,1.2-0.7,2.9,0.5,3.9c-1,1.2-2,2.3-3.1,3.4s-2.2,2.1-3.4,3.1c-1-1.2-2.7-1.4-3.9-0.5c-1.2,0.9-1.4,2.6-0.6,3.9
	c-1.3,0.9-2.6,1.7-3.9,2.4L87.1,93.4l-6.8-9.1c0.5-0.3,1-0.7,1.4-1.1l7.1,9l25.3,22.6L91.5,89.4l-9-7.1c0.4-0.4,0.8-0.9,1.1-1.4
	l9.1,6.8L123,103C122.3,104.4,121.5,105.7,120.6,106.9z M123,103L94.7,84.4l-10.5-4.5c0.3-0.5,0.5-1.1,0.7-1.7l10.6,4.3l33.2,6.9
	c-0.4,1.5-0.9,2.9-1.4,4.4c-1.4-0.5-3,0.2-3.6,1.6s0.1,3,1.4,3.6C124.5,100.4,123.8,101.7,123,103z M128.7,89.4L96.5,78.8l-11.3-1.6
	c0.1-0.6,0.2-1.2,0.2-1.8l11.4,1.4l33.9-1.9L96.8,73l-11.4,1.4c0-0.6-0.1-1.2-0.2-1.8L96.5,71l32.2-10.6c0.4,1.5,0.7,3,1,4.5
	c-1.5,0.3-2.5,1.6-2.3,3.1s1.6,2.6,3.1,2.4c0.1,1.5,0.2,3,0.2,4.6c0,1.5-0.1,3.1-0.2,4.6c-1.5-0.1-2.9,0.9-3.1,2.4s0.8,2.9,2.3,3.1
	C129.4,86.5,129,87.9,128.7,89.4z"/>
</svg>
