<?xml version="1.0" encoding="utf-8"?>
<!-- Generator: Adobe Illustrator 25.0.0, SVG Export Plug-In . SVG Version: 6.00 Build 0)  -->
<svg version="1.1" id="Layer_1" xmlns="http://www.w3.org/2000/svg" xmlns:xlink="http://www.w3.org/1999/xlink" x="0px" y="0px"
	 viewBox="0 0 150 150" style="enable-background:new 0 0 150 150;" xml:space="preserve">
<style type="text/css">
	.st0{fill:url(#SVGID_1_);}
	.st1{fill:#008800;}
	.st2{fill:#FF8300;}
</style>
<g>
	<g>
		<g>
			<g>
				
					<image style="overflow:visible;" width="21" height="22" xlink:href="5EA5B0BA.html"  transform="matrix(0.24 0 0 0.24 88.32 136.32)">
				</image>
			</g>
		</g>
	</g>
	<g>
		<g>
			<linearGradient id="SVGID_1_" gradientUnits="userSpaceOnUse" x1="9.9398" y1="82.0399" x2="121.9245" y2="58.0895">
				<stop  offset="0" style="stop-color:#D6DAE6"/>
				<stop  offset="0.5922" style="stop-color:#FFFFFF"/>
				<stop  offset="1" style="stop-color:#D6DAE6"/>
			</linearGradient>
			<path class="st0" d="M111.9,24.9c-1.1-1.2-2.5-2.9-3.6-4c4.2,4.2-3.3,11-19.5,16.6c-19.5,6.8-44.2,9.5-55.2,5.9
				c-4.5-1.4-6-3.7-4.9-6.3c-0.5,1.5-1.3,3.6-1.7,5.1c-1.2,5.1-1.2,5.4-1.5,8.7c-0.3,5.8-0.3,6.1-0.1,9.6C26,67,26,67.1,26.8,70.9
				c0.7,3.1,1.8,7.1,2.7,10.1c2.5,7,2.5,7,4.1,10.6c3.2,6.7,3.2,6.8,5.2,10.2l2,3.3c0.8,1.2,2.4,2.3,4.9,3.1
				c11.4,3.7,37,0.9,57.2-6.1c13.1-4.6,20.7-9.9,21.3-14l0.4-3.2c0.7-7.4,0.7-7.5,0.8-11.4c0-7.4,0-7.6-0.4-11.4
				c-0.8-7.2-0.8-7.4-1.6-11c-1.6-6.7-1.6-6.8-2.8-10.1c-2.3-5.8-2.3-5.9-3.8-8.8C114.1,27.9,113.5,26.9,111.9,24.9"/>
			<path class="st1" d="M122.5,96c-1.8,6.9-1.8,7-3,10.5c-2.4,6.1-2.5,6.4-4.1,9.6c-2.7,4.9-3,5.4-5.2,8.4c-2.6,3.2-3.3,4-6.5,6.9
				c-1.5,1.2-4.8,3.8-9.5,5.5c-0.9,0.3-0.9,0.3-1.3,0.4c-0.8,0.2-0.8,0.2-1.2,0.3c-0.7,0.2-0.7,0.2-1.1,0.2
				c-0.7,0.1-0.7,0.1-1.1,0.2c-0.7,0.1-0.8,0.1-1.2,0.2c-0.9,0.1-0.9,0.1-1.3,0.1c-1,0-1,0-1.6,0c-1.3,0-1.3,0-2-0.1
				c-1.8-0.2-1.9-0.2-2.9-0.4c-2.6-0.5-2.8-0.6-4.6-1.2c-3.6-1.3-4.5-1.7-8.6-4c-4.6-3-5-3.2-8.1-5.8c-4.7-4.3-4.9-4.4-7.5-7.3
				c-4.5-5.3-4.6-5.4-6.9-8.5c-1.3-1.9-2.9-4.3-4.1-6.2c0.8,1.2,2.4,2.3,4.9,3.1c11.4,3.7,37,0.9,57.2-6.1
				c13.1-4.6,20.7-9.9,21.3-14C123.6,90.5,123,93.6,122.5,96"/>
			<path class="st2" d="M91.4,10.5c3.5,1.3,4.4,1.6,7.9,3.4c3.7,2.3,4.2,2.6,6.8,4.8l2.2,2.1c4.2,4.2-3.3,11-19.5,16.6
				c-19.5,6.8-44.2,9.5-55.2,5.9c-4.5-1.4-6-3.7-4.9-6.3l1.2-2.8c2.1-3.9,2.4-4.4,4.4-7.1c2.4-2.9,2.9-3.5,6-6.3
				c2.3-1.8,4.4-3.6,8.2-5.7c3.2-1.7,4.8-2.4,8.3-3.7c1.9-0.6,1.9-0.6,2.9-0.9c1.8-0.5,1.8-0.5,2.7-0.7C64,9.5,64,9.5,64.8,9.4
				c1.6-0.3,1.7-0.3,2.6-0.5c1.8-0.3,1.8-0.3,2.7-0.3C72,8.4,72,8.4,73,8.3c2.1-0.1,2.2-0.1,3.3-0.1c0.7,0,1.6,0,2.3,0.1
				C75.2,8.3,83.4,8,91.4,10.5"/>
		</g>
	</g>
</g>
</svg>
