<?xml version="1.0" encoding="utf-8"?>
<!-- Generator: Adobe Illustrator 25.0.0, SVG Export Plug-In . SVG Version: 6.00 Build 0)  -->
<svg version="1.1" id="Layer_1" xmlns="http://www.w3.org/2000/svg" xmlns:xlink="http://www.w3.org/1999/xlink" x="0px" y="0px"
	 viewBox="0 0 150 150" style="enable-background:new 0 0 150 150;" xml:space="preserve">
<style type="text/css">
	.st0{fill:#492BC0;}
	.st1{fill:#FFC034;}
	.st2{fill:#00A64D;}
	.st3{fill:#F2576E;}
	.st4{fill:#39B7CD;}
</style>
<g>
	<path class="st0" d="M21.1,89.5c4.5,5.8,10.9,8.6,16.9,12.3c8.7,5.3,16.2,12.1,23.4,19.2c3.6,3.6,7.3,7.4,12,9.4
		c2.8,1.2,6.1,1.6,9.1,0.9c2-0.5,3.7-1.4,5.1-3c2.5-2.8,3.6-6.9,7.2-7.7c0.1,0,0.2,0,0.3-0.1c4.8-4.8,12.8-4.7,18-9
		c3.6-3,5.3-7.5,7.3-11.7c5.9-12.6,14.9-24.2,16.8-38c0.7-4.8,0.4-9.9-2.3-14c-0.8-1.3-1.9-2.4-3.3-2.9c-3.5-1.4-6.5,1.5-8.5,4.3
		c-5.1,7.1-8.3,15.6-9.3,24.3c-0.2,1.8-1.6,2.9-3.1,3.1c-1.2,0.2-2.6-0.3-3.4-1.6c-1.2-2-2.3-4-3.3-6c-2.7-5.3-5.1-10.8-7.7-16.2
		C89,37.4,79.4,23.2,68,10.6c-1.3-1.4-2.7-2.9-4.4-3.7c-1.7-0.8-4-0.9-5.5,0.3c-1.2,1-1.6,2.5-1.8,4c-0.1,0.5-0.1,1.1,0,1.6
		c0.3,7.9,4.6,15.1,8.5,22c5.1,8.8,9.9,17.9,14.3,27c0.3,0.7,0.7,1.5,0.3,2.1c-0.7,1.2-2.5,0.4-3.5-0.7c-0.1-0.1-0.1-0.1-0.2-0.2
		c-5.8-6.8-10.5-14.5-15.3-22C50.8,26,46.7,18.4,40.1,13.8C38,12.4,34.2,11.7,32,13c-1.8,1.1-2.7,3.5-2.6,5.6
		c0.3,3.8,1.9,7.5,3.8,11l0,0c1.1,2,2.2,3.8,3.4,5.6C44.4,48,52.5,60,61.4,72c0.9,1.2,0.2,2.8-1,3.2c-0.2,0.1-0.5,0.1-0.7,0.1
		c-2.2-0.2-4.5-1.4-6.4-2.6c-11-6.9-21.1-15.1-30-24.5c-1.1-1.2-2.6-2.1-4.2-2.2c-4.4-0.5-6,4.2-5.4,7.8c0.3,1.8,0.9,3.4,1.7,5
		c2,3.9,5.4,7.2,8.6,10.3c7.8,7.5,15.6,14.9,23.3,22.4c0.6,0.6,1.3,1.6,0.7,2.2c-0.3,0.4-0.9,0.4-1.4,0.3c-2.1-0.3-3.9-1.6-5.6-2.7
		C36,87.7,31.2,84.4,26.3,81c-1.3-0.9-2.6-1.8-4.2-2c-1.5-0.2-3.4,0.4-3.9,1.8c-0.1,0.4-0.2,0.7-0.2,1.1c0,0.5,0.1,1.1,0.3,1.6
		C18.8,85.7,19.8,87.7,21.1,89.5z"/>
	<path class="st0" d="M95.9,127.3c-3.7,8.5-15.9,11-25.1,7.2c-7.2-3-10.3,5.5,0.7,8.2C79.5,144.6,94.2,137.5,95.9,127.3z"/>
	<path class="st1" d="M98.6,128.6c0.3-0.7,0.7-1.2,1-1.9c0.4-1.1,0.2-2.2,0.2-3.3c0.1-1.1,0.6-2.4,1.6-2.7c1.2-0.3,2.2,0.7,3.3,1.2
		c0.5,0.3,1.1,0.4,1.7,0.4c0.4-0.2,0.8-0.4,1.1-0.7c0.9-0.5,1.8-1.1,2.9-1c1,0.1,2.1,1,1.9,2c-0.3,1.4-2.5,1.7-2.9,3.2
		c-0.3,1,0.6,2,0.8,3c0.3,1.6-1,3.1-2.4,3.9c-1.9,1.2-4.2,1.8-6.3,1.1C99.4,133.1,97.8,130.7,98.6,128.6z"/>
	<path class="st1" d="M85.4,116.3c2.6,2.3,5.9,3.7,9.3,4.3c0.1,0,0.2,0,0.3-0.1c4.8-4.8,12.8-4.7,18-9c3.6-3,5.3-7.5,7.3-11.7
		c5.9-12.6,14.9-24.2,16.8-38c0.7-4.8,0.4-9.9-2.3-14c-0.8-1.3-1.9-2.4-3.3-2.9c-3.5-1.4-6.5,1.5-8.5,4.3
		c-5.1,7.1-8.3,15.6-9.3,24.3c-0.2,1.8-1.6,2.9-3.1,3.1c-0.2,0.5-0.3,0.9-0.6,1.4c-2.6,5.1-6.6,9.6-11.3,12.8c-4,2.8-8.5,4.8-12.2,8
		c-3.6,3.3-6.2,8.4-4.5,13C82.7,113.6,83.9,115.1,85.4,116.3z"/>
	<path class="st2" d="M21.1,89.5c4.5,5.8,10.9,8.6,16.9,12.3c8.7,5.3,16.2,12.1,23.4,19.2c3.6,3.6,7.3,7.4,12,9.4
		c2.8,1.2,6.1,1.6,9.1,0.9c-0.2-0.2-0.4-0.3-0.5-0.5c-1.3-1.3-2.3-2.5-3.9-3.5c-4.7-2.9-9.2-5.5-13.2-9.3c-1.2-1.1-2.4-2.4-2.7-4
		c-0.2-1.4,0.4-2.7,0.9-4c2.8-6.4,5.9-13.2,11.9-16.7c1.9-1.1,4-1.8,5.8-3.1c2.9-2,4.7-5,6.3-8.1c2.8-5.5,4.9-11.8,3.6-17.9
		c-0.4,7.7-4.1,15.2-9.9,20.2c-3.6,3.1-7.9,5.2-11.9,7.7c-3.4,2.1-6.7,4.6-10.4,6.2c-3.7,1.6-8.1,2.1-11.8,0.3
		c-1.7-0.8-3.1-2.2-4.9-3c-2-1-4.3-1.4-6.4-2.1c-6.6-2.2-11.5-7.7-17.2-11.6c0,0.5,0.1,1.1,0.3,1.6C18.8,85.7,19.8,87.7,21.1,89.5z"
		/>
	<path class="st3" d="M33.2,29.6L33.2,29.6c0.9,1.1,1.8,2.1,3,2.9c1.7,1.1,3.9,1.9,5.7,0.8c0.6-0.4,1.1-0.9,1.8-1.1
		c1-0.3,2,0.2,2.9,0.7c1.5,0.8,3,1.6,3.8,3.1c0.8,1.6,0.8,3.9,2.5,4.7c0.8,0.4,2,0.4,2.3,1.2c0.1,0.4,0,0.8,0,1.2
		c0.1,1.6,2.4,2.5,2.4,4.2c0,1-0.8,1.8-1.6,2.4c-0.8,0.6-1.7,1.2-2,2.1c-0.3,1,0.6,2.2,1.5,1.9c0.6-0.3,0.8-1,1.2-1.5
		c0.7-1,2.2-1.1,3.3-0.5c1.1,0.5,1.9,1.6,2.6,2.6c0.9,1.3,1.7,2.7,2.3,4.2c0.6,1.4,0.9,2.9,1.7,4.3c1.7,2.9,5.4,4.4,8.6,3.5
		c0.3-0.1,0.7-0.2,0.9-0.5C76,65.3,76,65,76,64.7c0-0.4,0-0.9,0-1.3c-0.1-0.1-0.1-0.1-0.2-0.2c-5.8-6.8-10.5-14.5-15.3-22
		C50.8,26,46.7,18.4,40.1,13.8C38,12.4,34.2,11.7,32,13c-1.8,1.1-2.7,3.5-2.6,5.6C29.7,22.4,31.3,26.1,33.2,29.6z"/>
	<path class="st3" d="M86.6,40.9c0.8,0.9,1.3,2.3,0.7,3.4c-0.5,1-1.6,1.5-2.7,1.9c-2.3,0.9-4.5,1.7-6.8,2.6c0.7,1,2.2,0.8,3.4,0.5
		c2.3-0.5,5-0.7,6.6,0.9c1.4,1.4,1.6,3.7,3.3,4.8c0.8,0.6,1.9,0.7,2.7,1.2c1.3,0.8,2,2.4,2.3,3.9c0.3,1.5,0.3,3.1,0.9,4.6
		c1,2.7,4,4.5,6.9,4.3c0,0,0,0,0,0c-2.7-5.3-5.1-10.8-7.7-16.2C89,37.4,79.4,23.2,68,10.6c-1.3-1.4-2.7-2.9-4.4-3.7
		c-1.7-0.8-4-0.9-5.5,0.3c-1.2,1-1.6,2.5-1.8,4c0.1,2,0.4,3.9,1.3,5.7c1.9,3.7,5.6,6.3,9.7,6.8c2.3,0.3,5.1,0.1,6.4,2.1
		c0.1,0.2,0.3,0.5,0.2,0.8c0,0.4-0.3,0.6-0.6,0.8c-1.9,1.5-4,2.7-6.2,3.5c2.4,1.2,5.2-1.1,7.8-1c2.1,0.1,3.9,1.7,5.1,3.4
		c1.2,1.7,2.2,3.7,3.8,5.1C84.8,39.3,85.9,40,86.6,40.9z"/>
	<path class="st4" d="M15.3,58.6c1.4,0.7,3.2,0.8,4.8,0.7c1.9-0.1,3.8-0.4,5.7,0.1c1.5,0.3,2.9,1.1,4.2,1.9c1.3,0.7,2.8,2,2.3,3.4
		c-0.2,0.7-0.9,1.1-1.4,1.6C30.2,67,29.7,68,29.5,69c1.3,0.5,2.8-0.3,3.9-1.1c1.1-0.8,2.3-1.8,3.7-1.9c1.4,0,2.6,0.8,3.6,1.8
		c1,1,1.8,2.1,3,2.8c1.1,0.6,2.5,1.1,2.8,2.3c0.3,1.5-1.5,2.5-1.9,3.9c-0.4,1.4,0.4,2.8,1.3,3.9c1.2-2.1,2.9-4,4.8-5.4
		c1.1-0.8,2.8-1.4,3.9-0.5c0.5,0.5,0.7,1.2,1.2,1.6c1,0.9,2.6,0.4,3.8-0.2c0.4-0.2,0.7-0.4,0.9-0.7c0.1-0.2,0.1-0.4,0-0.7
		c-0.2,0.1-0.5,0.1-0.7,0.1c-2.2-0.2-4.5-1.4-6.4-2.6c-11-6.9-21.1-15.1-30-24.5c-1.1-1.2-2.6-2.1-4.2-2.2c-4.4-0.5-6,4.2-5.4,7.8
		C13.9,55.3,14.5,57,15.3,58.6z"/>
</g>
</svg>
