<?xml version="1.0" encoding="utf-8"?>
<!-- Generator: Adobe Illustrator 25.0.0, SVG Export Plug-In . SVG Version: 6.00 Build 0)  -->
<svg version="1.1" id="Layer_1" xmlns="http://www.w3.org/2000/svg" xmlns:xlink="http://www.w3.org/1999/xlink" x="0px" y="0px"
	 viewBox="0 0 150 150" style="enable-background:new 0 0 150 150;" xml:space="preserve">
<style type="text/css">
	.st0{fill:#00A64D;}
	.st1{fill:#00BF59;}
	.st2{fill:#00662F;}
	.st3{fill:#FFC034;}
	.st4{fill:#FFAE34;}
</style>
<g>
	<g>
		<path class="st0" d="M125.3,114c0-0.7-0.6-1.5-1.6-2.2c-4.5-7.7,5.4-12.4,8.5-31.3H17.7c3.1,18.9,13,23.6,8.5,31.3
			c-1,0.7-1.6,1.4-1.6,2.2c0,0,0,0,0,0c0,0,0,0,0,0h0c0,4.8,22.6,8.6,50.3,8.6C102.8,122.6,125.3,118.7,125.3,114L125.3,114
			C125.3,114,125.3,114,125.3,114C125.3,114,125.3,114,125.3,114z"/>
		<path class="st1" d="M132.3,80.5c0,1.7-1.6,3.2-4.3,4.5c-5.9,2.8-17.4,4.7-30.8,5.7c-28,2.1-64.3,0.1-75.8-6
			c-2.4-1.2-3.7-2.7-3.7-4.2c0-3,5.5-5.3,14.1-7c15.1-3,39.8-4.1,60.9-3.1c10.1,0.5,19.5,1.5,26.5,3
			C127.2,75.1,132.3,77.5,132.3,80.5z"/>
		<path class="st2" d="M129.8,80.6c0,1.2-1,2.3-2.8,3.2c-0.4,0.2-0.8,0.4-1.3,0.7c-5.7,2.4-16.6,4.1-29.4,4.9c0,0-0.1,0-0.1,0
			c-26.8,1.8-61.5,0.1-72.6-5.1c-0.4-0.2-0.8-0.4-1.2-0.6c-1.5-0.9-2.3-1.9-2.3-3c0-2.2,3.9-4,10.1-5.4c1.1-0.2,2.2-0.5,3.4-0.7
			c14.5-2.6,38.1-3.6,58.3-2.7c0.1,0,0.2,0,0.2,0c9.6,0.4,18.5,1.3,25.1,2.6c1.1,0.2,2.2,0.4,3.2,0.7
			C126.3,76.5,129.8,78.3,129.8,80.6z"/>
		<path class="st3" d="M127.1,83.8c-0.4,0.2-0.8,0.4-1.3,0.7c-5.7,2.4-16.6,4.1-29.4,4.9c0,0-0.1,0-0.1,0
			c-26.8,1.8-61.5,0.1-72.6-5.1c-0.4-0.2-0.8-0.4-1.2-0.6c0.3-0.3,0.6-0.7,1-1c0.7-0.7,1.4-1.5,2-2.2c1.6-1.7,3.2-3.4,4.8-5.2
			c0.5-0.6,1-1.1,1.6-1.7c4.2-4.5,8.4-9.1,12.5-13.6C52.2,51.4,60,43,67.8,34.5c3.2-3.5,7.1-7.3,11.9-7.1c2.9,0.1,5.3,1.7,7.4,3.7
			c1.4,1.4,2.8,3.1,3.9,4.7c9.4,12.5,18.8,25.1,28.3,37.6c0.4,0.6,0.8,1.1,1.3,1.7c0.9,1.2,1.8,2.4,2.7,3.6
			C124.5,80.4,125.8,82.1,127.1,83.8z"/>
		<path class="st4" d="M127.1,83.8c-0.4,0.2-0.8,0.4-1.3,0.7c-5.7,2.4-16.6,4.1-29.4,4.9c-2.1-3-5.3-5.5-6-9.1
			c-0.5-2.8,0.8-5.6,1.8-8.4c0.2-0.5,0.4-1,0.5-1.4c0.6-1.8,1-3.6,0.5-5.4c-0.6-2.9-3-5-5.2-7c-2.1-2-4.2-4.6-4-7.6
			c0.2-3.6,4-6.8,2.9-10.2c-0.4-1.4-1.7-2.5-2.6-3.7c-0.9-1.2-1.6-2.8-0.9-4.1c0.7-1.2,2.3-1.6,3.6-1.3c1.4,1.4,2.8,3.1,3.9,4.7
			c9.4,12.5,18.8,25.1,28.3,37.6c0.4,0.6,0.8,1.1,1.3,1.7c0.9,1.2,1.8,2.4,2.7,3.6C124.5,80.4,125.8,82.1,127.1,83.8z"/>
	</g>
</g>
</svg>
