<?xml version="1.0" encoding="utf-8"?>
<!-- Generator: Adobe Illustrator 25.0.0, SVG Export Plug-In . SVG Version: 6.00 Build 0)  -->
<svg version="1.1" id="Layer_1" xmlns="http://www.w3.org/2000/svg" xmlns:xlink="http://www.w3.org/1999/xlink" x="0px" y="0px"
	 viewBox="0 0 150 150" style="enable-background:new 0 0 150 150;" xml:space="preserve">
<style type="text/css">
	.st0{fill:#2E1B78;}
	.st1{fill:#3F25A3;}
	.st2{fill:#24155E;}
	.st3{fill:#39B7CD;}
	.st4{fill:#39ACC4;}
</style>
<g>
	<path class="st0" d="M124.7,113.5c0-0.7-0.5-1.5-1.6-2.1c-4.4-7.6,5.3-12.2,8.4-30.9H18.5c3.1,18.7,12.8,23.3,8.4,30.9
		c-1,0.7-1.6,1.4-1.6,2.1c0,0,0,0,0,0c0,0,0,0,0,0h0c0,4.7,22.3,8.5,49.7,8.5C102.4,122,124.7,118.2,124.7,113.5L124.7,113.5
		C124.7,113.5,124.7,113.5,124.7,113.5C124.7,113.5,124.7,113.5,124.7,113.5z"/>
	<path class="st1" d="M131.5,80.5c0,1.7-1.5,3.1-4.2,4.4c-5.8,2.8-17.2,4.7-30.4,5.6c-27.6,2-63.4,0.1-74.8-5.9
		c-2.3-1.2-3.6-2.6-3.6-4.2c0-2.9,5.4-5.2,13.9-6.9c14.9-3,39.3-4.1,60.1-3.1c10,0.5,19.2,1.5,26.2,3
		C126.6,75.1,131.5,77.4,131.5,80.5z"/>
	<path class="st2" d="M129.1,80.5c0,1.2-1,2.2-2.7,3.2c-0.4,0.2-0.8,0.4-1.3,0.6c-5.6,2.4-16.4,4-29,4.8c0,0-0.1,0-0.1,0
		c-26.4,1.8-60.7,0.1-71.6-5.1c-0.4-0.2-0.8-0.4-1.2-0.6c-1.5-0.9-2.3-1.9-2.3-3c0-2.2,3.8-3.9,10-5.3c1.1-0.2,2.2-0.5,3.3-0.7
		c14.3-2.6,37.6-3.5,57.6-2.6c0.1,0,0.2,0,0.2,0c9.5,0.4,18.2,1.3,24.8,2.5c1.1,0.2,2.1,0.4,3.1,0.7
		C125.6,76.5,129.1,78.3,129.1,80.5z"/>
	<path class="st3" d="M126.4,83.7c-0.4,0.2-0.8,0.4-1.3,0.6c-5.6,2.4-16.4,4-29,4.8c0,0-0.1,0-0.1,0c-4,0.3-8.1,0.4-12.3,0.6
		c-23.9,0.6-50.1-1.2-59.4-5.7c-0.4-0.2-0.8-0.4-1.2-0.6c0.3-0.3,0.6-0.7,0.9-1c0.7-0.7,1.3-1.5,2-2.2c1.6-1.7,3.1-3.4,4.7-5.1
		c0.5-0.5,1-1.1,1.5-1.7c4.1-4.5,8.3-9,12.4-13.5c7.7-8.3,15.4-16.7,23.1-25.1c3-3.2,6.5-6.7,10.8-7c0.3,0,0.6,0,0.9,0
		c2.8,0.1,5.3,1.6,7.4,3.6c1.4,1.4,2.7,3,3.9,4.6c9.3,12.4,18.6,24.8,27.9,37.2c0.4,0.5,0.8,1.1,1.2,1.7c0.9,1.2,1.8,2.4,2.6,3.5
		C123.9,80.3,125.1,82,126.4,83.7z"/>
	<path class="st4" d="M126.4,83.7c-0.4,0.2-0.8,0.4-1.3,0.6c-5.6,2.4-16.4,4-29,4.8c0,0-0.1,0-0.1,0c-4,0.3-8.1,0.4-12.3,0.6
		C76.5,87.5,82,77,75.7,71.7c11.2-7.3,3.7-13.7-3.2-10.4c8.2-19.8,9.2-30.4,6.2-33.3c0.3,0,0.6,0,0.9,0c2.8,0.1,5.3,1.6,7.4,3.6
		c1.4,1.4,2.7,3,3.9,4.6c9.3,12.4,18.6,24.8,27.9,37.2c0.4,0.5,0.8,1.1,1.2,1.7c0.9,1.2,1.8,2.4,2.6,3.5
		C123.9,80.3,125.1,82,126.4,83.7z"/>
</g>
</svg>
