<?xml version="1.0" encoding="utf-8"?>
<!-- Generator: Adobe Illustrator 25.0.0, SVG Export Plug-In . SVG Version: 6.00 Build 0)  -->
<svg version="1.1" id="Layer_1" xmlns="http://www.w3.org/2000/svg" xmlns:xlink="http://www.w3.org/1999/xlink" x="0px" y="0px"
	 viewBox="0 0 50 50" style="enable-background:new 0 0 50 50;" xml:space="preserve">
<style type="text/css">
	.st0{fill:#E32A3A;}
	.st1{fill:#FF4F5D;}
</style>
<g>
	<path class="st0" d="M37.3,29.8c0,0,2.1-3.1-1.6-4.7c0,0-1.9-0.7-12,4.3l-2,3.9l0.5,0.8c-0.3,0,0,0.2,2.1-0.7
		C26.2,32.5,31.8,29.7,37.3,29.8z"/>
	<path class="st1" d="M28.4,42.8c0,0,0.2,1.3,3,3.7c0,0-0.7-2.2,1.6-4.8c2.3-2.6,7.2-7.6,6.7-11.2c0,0-0.1-1-0.5-2.1
		c-0.4-1-2-3-3.6-3.4c0,0,3,1,0.8,5.6C35.4,33.1,28.9,41.2,28.4,42.8z"/>
	<path class="st0" d="M28.2,17.6c0,0,2.1-3.1-1.6-4.7c0,0-1.9-0.7-12,4.3l-2,2.5l0.6,2.2c-0.3,0,0,0.2,2.1-0.7
		C17.2,20.3,22.8,17.5,28.2,17.6z"/>
	<path class="st1" d="M19.4,30.6c0,0,0.2,1.3,3,3.7c0,0-0.7-2.2,1.6-4.8c2.3-2.6,7.2-7.6,6.7-11.2c0,0-0.1-1-0.5-2.1
		c-0.4-1-2-3-3.6-3.4c0,0,3,1,0.8,5.6C26.3,20.9,19.8,29,19.4,30.6z"/>
	<path class="st1" d="M10.2,18.2c0,0,0.2,1.3,3,3.7c0,0-0.7-2.2,1.6-4.8C17.1,14.5,22,9.6,21.5,6L19,3.6c-0.1,0.7-0.3,1.5-0.8,2.5
		C17.1,8.5,10.6,16.6,10.2,18.2z"/>
</g>
</svg>
