<?xml version="1.0" encoding="utf-8"?>
<!-- Generator: Adobe Illustrator 25.0.0, SVG Export Plug-In . SVG Version: 6.00 Build 0)  -->
<svg version="1.1" id="Layer_1" xmlns="http://www.w3.org/2000/svg" xmlns:xlink="http://www.w3.org/1999/xlink" x="0px" y="0px"
	 viewBox="0 0 50 50" style="enable-background:new 0 0 50 50;" xml:space="preserve">
<style type="text/css">
	.st0{fill:url(#SVGID_1_);}
	.st1{fill:url(#SVGID_2_);}
	.st2{fill:url(#SVGID_3_);}
	.st3{fill:url(#SVGID_4_);}
	.st4{fill:url(#SVGID_5_);}
</style>
<g>
	<g>
		
			<linearGradient id="SVGID_1_" gradientUnits="userSpaceOnUse" x1="12.0345" y1="-188.0527" x2="7.6195" y2="-197.5266" gradientTransform="matrix(0.6431 -0.7658 0.7658 0.6431 176.388 164.1418)">
			<stop  offset="0" style="stop-color:#005D00"/>
			<stop  offset="0.9951" style="stop-color:#004616"/>
		</linearGradient>
		<path class="st0" d="M28.3,29.4c0,0,1.4,2.2,4.8,2.1c3.3-0.2,7.1,0.4,8.6,1.5c1.6,1.2,2.9,3.1,2.9,3.1s-1.7-1.5-4.5-1.4
			c-2.8,0-7.2-0.4-8.9-1.7C29.3,31.6,28.6,30.3,28.3,29.4z"/>
		<g>
			
				<linearGradient id="SVGID_2_" gradientUnits="userSpaceOnUse" x1="7.8251" y1="-183.1924" x2="14.1916" y2="-183.1924" gradientTransform="matrix(0.6431 -0.7658 0.7658 0.6431 176.388 164.1418)">
				<stop  offset="0" style="stop-color:#009300"/>
				<stop  offset="1" style="stop-color:#007B00"/>
			</linearGradient>
			<path class="st1" d="M41,32.6c0,0,2.6,0.8,3.9,3.1c0.8,1.4,1.2,4.7,0.1,7.9l-2.6-2.5C42.4,41.1,43.9,35.4,41,32.6z"/>
		</g>
		
			<linearGradient id="SVGID_3_" gradientUnits="userSpaceOnUse" x1="13.6842" y1="-208.9726" x2="3.5663" y2="-216.2391" gradientTransform="matrix(0.6431 -0.7658 0.7658 0.6431 176.388 164.1418)">
			<stop  offset="0" style="stop-color:#005D00"/>
			<stop  offset="0.9951" style="stop-color:#004616"/>
		</linearGradient>
		<path class="st2" d="M9.9,19.3c0,0,1.1,1.6,4.9,0.8c3-0.6,9.8-3.2,13.1-2.1c1.1,0.4,2.8,2,3.6,3.4c0,0-1.5-2.4-5.4-1
			c-3,1-8.7,2.5-11,2.3C12.8,22.4,12.1,22,9.9,19.3z"/>
		<g>
			
				<linearGradient id="SVGID_4_" gradientUnits="userSpaceOnUse" x1="7.0093" y1="-201.1056" x2="17.0421" y2="-201.1056" gradientTransform="matrix(0.6431 -0.7658 0.7658 0.6431 176.388 164.1418)">
				<stop  offset="0" style="stop-color:#009300"/>
				<stop  offset="1" style="stop-color:#007B00"/>
			</linearGradient>
			<path class="st3" d="M27.9,18c0,0,1.9,0.4,3.7,2.5c1.1,1.3,0.5,3.4-0.1,6.5s-0.8,5.3,0.5,6.4c0,0-3-1.5-3.5-3.6
				c-0.8-2.7,1.6-5.8,1-8.9C29.3,20,29.1,19.1,27.9,18z"/>
		</g>
		<g>
			
				<linearGradient id="SVGID_5_" gradientUnits="userSpaceOnUse" x1="3.3918" y1="-222.4013" x2="12.696" y2="-222.4013" gradientTransform="matrix(0.6431 -0.7658 0.7658 0.6431 176.388 164.1418)">
				<stop  offset="0" style="stop-color:#009300"/>
				<stop  offset="1" style="stop-color:#007B00"/>
			</linearGradient>
			<path class="st4" d="M9.1,7.1l2.3,2.2c0,0-2,10.1,2.3,13.2c0,0-2.8-0.8-4.3-3.7C8.1,16.4,8.1,12.3,9.1,7.1z"/>
		</g>
	</g>
</g>
</svg>
