<?xml version="1.0" encoding="utf-8"?>
<!-- Generator: Adobe Illustrator 25.0.0, SVG Export Plug-In . SVG Version: 6.00 Build 0)  -->
<svg version="1.1" id="Layer_1" xmlns="http://www.w3.org/2000/svg" xmlns:xlink="http://www.w3.org/1999/xlink" x="0px" y="0px"
	 viewBox="0 0 50 50" style="enable-background:new 0 0 50 50;" xml:space="preserve">
<style type="text/css">
	.st0{fill:url(#SVGID_1_);}
	.st1{fill:url(#SVGID_2_);}
	.st2{fill:url(#SVGID_3_);}
	.st3{fill:url(#SVGID_4_);}
	.st4{fill:url(#SVGID_5_);}
</style>
<g>
	<g>
		
			<linearGradient id="SVGID_1_" gradientUnits="userSpaceOnUse" x1="39.5187" y1="94.5799" x2="35.0165" y2="86.2682" gradientTransform="matrix(0.9927 0.1207 -0.1207 0.9927 -3.8754 -65.4707)">
			<stop  offset="0" style="stop-color:#FF9800"/>
			<stop  offset="1" style="stop-color:#FF5617"/>
		</linearGradient>
		<path class="st0" d="M19.4,25.4c0,0-0.6,1,1.9,3.8c3.2,3.5,7,4.8,8,7.6c0,1.6-0.7,3.4-0.7,3.4s0.8-0.7-1.9-3.2
			c-2.4-2.2-8-4.8-8.3-8.3C18.3,27.5,19.4,25.4,19.4,25.4z"/>
		
			<linearGradient id="SVGID_2_" gradientUnits="userSpaceOnUse" x1="40.4024" y1="74.0519" x2="39.1037" y2="68.5108" gradientTransform="matrix(0.9927 0.1207 -0.1207 0.9927 -3.8754 -65.4707)">
			<stop  offset="0" style="stop-color:#FF9800"/>
			<stop  offset="1" style="stop-color:#FF5617"/>
		</linearGradient>
		<path class="st1" d="M26.1,8.9c0,0-1.1,2.6,0.2,4.9c1.6,2.8,2.5,3.3,1.7,6.3c0,0,1.6-2.7,1-4.7c-0.8-2.6-2.8-5.3-2.3-7.5
			C26.7,7.8,26.3,8.2,26.1,8.9z"/>
		
			<linearGradient id="SVGID_3_" gradientUnits="userSpaceOnUse" x1="42.2008" y1="65.5925" x2="38.6295" y2="73.2547" gradientTransform="matrix(0.9927 0.1207 -0.1207 0.9927 -3.8754 -65.4707)">
			<stop  offset="0" style="stop-color:#FFC100"/>
			<stop  offset="0.3369" style="stop-color:#FF8810"/>
			<stop  offset="1" style="stop-color:#FF5617"/>
		</linearGradient>
		<path class="st2" d="M32.3,2.3L31.5,6c0,0-5.5,1.8-5.9,5.1c0,0-0.3-3.1,1.4-4.8C28.7,4.6,32.3,2.3,32.3,2.3z"/>
		
			<linearGradient id="SVGID_4_" gradientUnits="userSpaceOnUse" x1="39.3104" y1="81.3735" x2="32.9469" y2="95.5941" gradientTransform="matrix(0.9927 0.1207 -0.1207 0.9927 -3.8754 -65.4707)">
			<stop  offset="0" style="stop-color:#FFC100"/>
			<stop  offset="0.3369" style="stop-color:#FF8810"/>
			<stop  offset="1" style="stop-color:#FF5617"/>
		</linearGradient>
		<path class="st3" d="M29.1,15.6c0,0,0.6,2.1-0.5,4.4c-0.6,1.2-1.4,1.9-3.7,3.2c-2.6,1.5-6,3.7-6.5,5.6c0,0-0.4-2.8,1.5-5
			C21.7,21.6,28.7,19.5,29.1,15.6z"/>
		
			<linearGradient id="SVGID_5_" gradientUnits="userSpaceOnUse" x1="42.5977" y1="98.9448" x2="37.9874" y2="117.5159" gradientTransform="matrix(0.9927 0.1207 -0.1207 0.9927 -3.8754 -65.4707)">
			<stop  offset="0" style="stop-color:#FFC100"/>
			<stop  offset="0.3369" style="stop-color:#FF8810"/>
			<stop  offset="1" style="stop-color:#FF5617"/>
		</linearGradient>
		<path class="st4" d="M29.3,36.8c0,0,1.2,2.4-0.9,5.2c-1.5,2.1-6.7,3.1-9,6.1c0,0,0-0.9,0.4-2.6c0.4-1.6,1.2-2.2,3.4-3.3
			C25.7,41,29,38.9,29.3,36.8z"/>
	</g>
</g>
</svg>
