<?xml version="1.0" encoding="utf-8"?>
<!-- Generator: Adobe Illustrator 25.0.0, SVG Export Plug-In . SVG Version: 6.00 Build 0)  -->
<svg version="1.1" id="Layer_1" xmlns="http://www.w3.org/2000/svg" xmlns:xlink="http://www.w3.org/1999/xlink" x="0px" y="0px"
	 viewBox="0 0 50 50" style="enable-background:new 0 0 50 50;" xml:space="preserve">
<style type="text/css">
	.st0{fill:url(#SVGID_1_);}
	.st1{fill:url(#SVGID_2_);}
	.st2{fill:url(#SVGID_3_);}
</style>
<g>
	<g>
		
			<linearGradient id="SVGID_1_" gradientUnits="userSpaceOnUse" x1="28.0845" y1="20.4383" x2="25.8735" y2="11.0044" gradientTransform="matrix(0.862 0.5069 -0.5069 0.862 16.4277 -9.6776)">
			<stop  offset="0" style="stop-color:#D6DAE6"/>
			<stop  offset="0.5922" style="stop-color:#FFFFFF"/>
			<stop  offset="1" style="stop-color:#D6DAE6"/>
		</linearGradient>
		<path class="st0" d="M31.1,15.1c0,0-3.5,3.3-3,7.8c0.6,5.5,1.7,6.9-1.5,11c0,0,4.4-3.1,4.8-6.7c0.6-4.6-0.8-10.1,1.5-13.3
			C32.9,13.8,31.9,14.1,31.1,15.1z"/>
		
			<linearGradient id="SVGID_2_" gradientUnits="userSpaceOnUse" x1="31.1462" y1="6.0357" x2="25.0658" y2="19.081" gradientTransform="matrix(0.862 0.5069 -0.5069 0.862 16.4277 -9.6776)">
			<stop  offset="0" style="stop-color:#D6DAE6"/>
			<stop  offset="0.5922" style="stop-color:#FFFFFF"/>
			<stop  offset="1" style="stop-color:#D6DAE6"/>
		</linearGradient>
		<path class="st1" d="M45.4,9l-3.8,5.2c0,0-9.8-1-12.7,4c0,0,1.6-5,5.4-6.5C38.2,10.2,45.4,9,45.4,9z"/>
		
			<linearGradient id="SVGID_3_" gradientUnits="userSpaceOnUse" x1="26.2258" y1="32.9036" x2="15.3916" y2="57.1148" gradientTransform="matrix(0.862 0.5069 -0.5069 0.862 16.4277 -9.6776)">
			<stop  offset="0" style="stop-color:#D6DAE6"/>
			<stop  offset="0.5922" style="stop-color:#FFFFFF"/>
			<stop  offset="1" style="stop-color:#D6DAE6"/>
		</linearGradient>
		<path class="st2" d="M31.2,27.6c0,0-0.5,3.7-3.8,6.5c-1.8,1.5-3.4,2-8,2.5c-5.1,0.5-11.9,1.6-13.9,4.3c0,0,1.3-4.6,5.7-6.8
			C15.7,32,28,33.4,31.2,27.6z"/>
	</g>
</g>
</svg>
