<?xml version="1.0" encoding="UTF-8"?>
<svg id="Layer_2" data-name="Layer 2" xmlns="http://www.w3.org/2000/svg" xmlns:xlink="http://www.w3.org/1999/xlink" viewBox="0 0 256 256">
  <defs>
    <style>
      .cls-1 {
        fill: url(#linear-gradient-2);
      }

      .cls-2 {
        fill: none;
      }

      .cls-3 {
        fill: url(#linear-gradient-4);
      }

      .cls-4 {
        fill: url(#linear-gradient-3);
      }

      .cls-5 {
        fill: url(#linear-gradient);
      }
    </style>
    <linearGradient id="linear-gradient" x1="64.87" y1="143.51" x2="81.61" y2="88.55" gradientUnits="userSpaceOnUse">
      <stop offset="0" stop-color="#00cae5"/>
      <stop offset="1" stop-color="#2e3be5"/>
    </linearGradient>
    <linearGradient id="linear-gradient-2" x1="165.7" y1="220.78" x2="165.14" y2="72.64" xlink:href="#linear-gradient"/>
    <linearGradient id="linear-gradient-3" x1="90.58" y1="45.84" x2="90.58" y2="193.32" xlink:href="#linear-gradient"/>
    <linearGradient id="linear-gradient-4" x1="212.66" y1="75.31" x2="97.43" y2="84.52" xlink:href="#linear-gradient"/>
  </defs>
  <g id="Layer_1-2" data-name="Layer 1">
    <g>
      <rect class="cls-2" width="256" height="256"/>
      <g>
        <path class="cls-5" d="M95.82,103.51c-2.19,2.55-4.2,5.25-6,8.08-3.5,5.48-6.21,11.41-8.07,17.63-1.71,5.7-2.67,11.63-2.89,17.63-.01.3-.02.61-.03.92h-29.94c0-.41.02-.81.03-1.2.18-6.57,1-13.15,2.45-19.53,1.53-6.74,3.76-13.32,6.62-19.55,3.18-6.93,7.16-13.5,11.84-19.54,1.23-1.59,2.51-3.15,3.84-4.67,1.61.74,3.19,1.57,4.72,2.49,3.6,2.16,6.93,4.78,9.88,7.8,1.69,1.72,3.26,3.57,4.67,5.52,1.04,1.42,1.99,2.89,2.87,4.41Z"/>
        <path class="cls-1" d="M180.38,86.01v121.1h-29.93V78.83c1.32.02,2.66.07,3.97.17,6.94.5,13.72,2,20.16,4.47,1.98.75,3.91,1.6,5.8,2.53Z"/>
        <path class="cls-4" d="M132.28,128c0,6.7-.83,13.35-2.49,19.77-1.79,6.95-4.52,13.6-8.1,19.79-3.44,5.97-7.68,11.48-12.57,16.38-5.33,5.33-11.37,9.86-17.97,13.48-6.86,3.76-14.23,6.48-21.92,8.07-5.24,1.09-10.64,1.63-16.05,1.63h-4.28v-29.93h4.28c1.67,0,3.33-.09,4.95-.25,6.66-.66,12.98-2.64,18.81-5.86,4.04-2.23,7.74-5.02,11.02-8.3.09-.09.17-.17.24-.24l.1-.11c4.86-4.96,8.55-10.74,10.96-17.21,2.06-5.49,3.1-11.28,3.1-17.21s-1.04-11.72-3.1-17.21c-.94-2.52-2.08-4.96-3.42-7.29-.88-1.52-1.83-2.99-2.87-4.41-1.41-1.95-2.98-3.8-4.67-5.52-2.96-3.03-6.28-5.64-9.88-7.8-1.53-.92-3.11-1.75-4.72-2.49-6.4-2.93-13.4-4.47-20.52-4.47h-4.28v-29.93h4.28c16.26,0,31.74,4.84,44.99,14.03.8.55,1.59,1.12,2.37,1.71,1.72,1.28,3.39,2.65,4.97,4.04,4.23,3.74,8.09,7.95,11.45,12.52.99,1.35,1.94,2.74,2.84,4.15.66,1.03,1.29,2.06,1.9,3.11,3.58,6.18,6.31,12.83,8.1,19.78,1.66,6.43,2.49,13.08,2.49,19.78Z"/>
        <path class="cls-3" d="M207.11,67.09v40.47l-7.33-7.51c-2.12-2.16-4.4-4.22-6.8-6.11-3.92-3.09-8.14-5.75-12.59-7.93-1.89-.93-3.83-1.78-5.8-2.53-6.44-2.47-13.22-3.98-20.16-4.47-1.31-.09-2.65-.15-3.97-.17-.36-.01-.72-.01-1.07-.01-10.23,0-20.37,2.25-29.59,6.52-.9-1.41-1.85-2.8-2.84-4.15-3.37-4.58-7.22-8.79-11.45-12.52-1.58-1.4-3.26-2.76-4.97-4.04-.78-.59-1.57-1.15-2.37-1.71,15.47-9.19,33.12-14.03,51.23-14.03,1.9,0,3.78.05,5.59.16,7.57.41,15.08,1.68,22.33,3.77,9.92,2.87,19.31,7.24,27.91,12.99l1.9,1.27Z"/>
      </g>
    </g>
  </g>
</svg>